<?xml version="1.0" encoding="utf-8"?>
<!-- Generator: Adobe Illustrator 22.1.0, SVG Export Plug-In . SVG Version: 6.00 Build 0)  -->
<svg version="1.1" id="Слой_1" xmlns="http://www.w3.org/2000/svg" xmlns:xlink="http://www.w3.org/1999/xlink" x="0px" y="0px"
	 viewBox="0 0 149 24" style="enable-background:new 0 0 149 24;" xml:space="preserve">
<style type="text/css">
	.st0{enable-background:new    ;}
</style>
<title>Ergo Explorer</title>
<desc>Created with Sketch.</desc>
<g class="st0">
	<path d="M0.3,19V0.4h14.1v3.8H4.9v3.3H13v3.6H4.9v4h9.6V19H0.3z"/>
	<path d="M16.3,19V5.7h4.1v2.1h0.1c0.9-1.5,2.1-2.3,3.6-2.3c0.4,0,0.7,0,0.8,0.1v3.6h-0.1c-1.3-0.2-2.4,0-3.1,0.7s-1.1,1.7-1.1,3.1
		v6H16.3z"/>
	<path d="M32.5,23.6c-1.9,0-3.4-0.4-4.5-1.1c-1.1-0.7-1.8-1.8-2-3.2h4.1c0.3,0.9,1.1,1.3,2.3,1.3c1.7,0,2.5-0.8,2.5-2.5v-1.3h-0.1
		c-0.9,1-2,1.5-3.4,1.5c-1.6,0-3-0.6-4.1-1.7c-1.1-1.1-1.7-2.7-1.7-4.6s0.5-3.6,1.6-4.8s2.4-1.9,4-1.9c1.6,0,2.9,0.6,3.7,1.8h0.1
		V5.7h4.1v12c0,1.9-0.6,3.4-1.8,4.4C36.3,23.1,34.6,23.6,32.5,23.6z M32.5,15.1c0.9,0,1.6-0.3,2-0.9c0.5-0.6,0.7-1.4,0.7-2.4
		c0-0.9-0.2-1.7-0.7-2.4c-0.5-0.6-1.1-0.9-2-0.9c-0.8,0-1.4,0.3-1.9,0.9c-0.5,0.6-0.7,1.4-0.7,2.4s0.2,1.8,0.7,2.4
		C31,14.8,31.7,15.1,32.5,15.1z"/>
	<path d="M52.8,17.4c-1.3,1.3-3,2-5.1,2c-2.1,0-3.8-0.7-5.1-2c-1.3-1.3-2-3-2-5s0.7-3.7,2-5c1.3-1.3,3-2,5.1-2c2.1,0,3.8,0.7,5.1,2
		s2,3,2,5S54.1,16.1,52.8,17.4z M45.6,15.3c0.5,0.7,1.2,1.1,2.1,1.1c0.9,0,1.6-0.4,2.1-1.1c0.5-0.7,0.7-1.7,0.7-2.9s-0.2-2.2-0.7-3
		c-0.5-0.7-1.2-1.1-2.1-1.1c-0.9,0-1.6,0.4-2.1,1.1c-0.5,0.7-0.7,1.7-0.7,3C44.9,13.6,45.1,14.6,45.6,15.3z"/>
</g>
<g class="st0">
	<path d="M60.9,19V0.4h12.6v1.5H62.6v6.7h10v1.5h-10v7.3h11.2V19H60.9z"/>
	<path d="M75,19l5-7.1l-4.5-6.3h1.9l3.5,5.2H81l3.5-5.2h1.8l-4.4,6.2l5.1,7.2h-1.9L81,12.9H81L76.8,19H75z"/>
	<path d="M88.6,23.3V5.6h1.6v2.3h0.1c1-1.7,2.5-2.6,4.5-2.6c1.6,0,3,0.6,4,1.9c1,1.2,1.5,3,1.5,5.1c0,2.1-0.5,3.8-1.5,5.1
		c-1,1.3-2.4,2-4.1,2c-1.9,0-3.4-0.8-4.4-2.3h-0.1v6.3H88.6z M94.7,18c1.3,0,2.3-0.5,3-1.6c0.7-1.1,1.1-2.4,1.1-4.1
		c0-1.7-0.4-3.1-1.1-4.1c-0.7-1-1.7-1.6-3.1-1.6c-1.4,0-2.6,0.5-3.3,1.6c-0.8,1.1-1.2,2.4-1.2,4.1c0,1.7,0.4,3.1,1.2,4.1
		C92.1,17.5,93.2,18,94.7,18z"/>
	<path d="M102.5,19V0.4h1.6V19H102.5z"/>
	<path d="M112.4,19.3c-1.9,0-3.4-0.7-4.6-2c-1.1-1.3-1.7-3-1.7-5.1c0-2,0.6-3.7,1.7-5.1c1.1-1.3,2.6-2,4.6-2c1.9,0,3.4,0.7,4.5,2
		c1.1,1.3,1.7,3,1.7,5.1c0,2-0.6,3.7-1.7,5.1C115.8,18.7,114.3,19.3,112.4,19.3z M112.4,18c1.4,0,2.6-0.5,3.4-1.6
		c0.8-1.1,1.2-2.4,1.2-4.1s-0.4-3-1.2-4.1c-0.8-1.1-1.9-1.6-3.4-1.6c-1.5,0-2.6,0.5-3.4,1.6c-0.8,1.1-1.2,2.4-1.2,4.1s0.4,3,1.2,4.1
		C109.9,17.4,111,18,112.4,18z"/>
	<path d="M120.7,19V5.6h1.6v2.5h0.1c0.9-1.7,2.3-2.6,4.1-2.6c0.2,0,0.3,0,0.4,0.1v1.6c-1.1-0.2-2,0-2.9,0.7
		c-1.2,0.9-1.7,2.1-1.7,3.6V19H120.7z"/>
	<path d="M134.2,19.3c-2,0-3.5-0.7-4.6-2c-1.1-1.3-1.7-3-1.7-5.1c0-2,0.6-3.7,1.7-5.1c1.1-1.3,2.6-2,4.4-2c1,0,1.9,0.2,2.7,0.6
		c0.8,0.4,1.4,1,1.8,1.7c0.4,0.7,0.7,1.5,0.9,2.3s0.3,1.8,0.3,2.7h-10.2c0,1.6,0.4,2.9,1.2,3.9c0.8,1,1.9,1.5,3.4,1.5
		c2,0,3.4-1,3.9-3h1.6c-0.3,1.4-0.9,2.4-1.9,3.2S135.7,19.3,134.2,19.3z M129.6,11.3h8.5c0-1.4-0.4-2.5-1.1-3.4
		c-0.7-0.9-1.7-1.3-3-1.3c-1.3,0-2.3,0.4-3.1,1.3C130.3,8.7,129.8,9.9,129.6,11.3z"/>
	<path d="M141.9,19V5.6h1.6v2.5h0.1c0.9-1.7,2.3-2.6,4.1-2.6c0.2,0,0.3,0,0.4,0.1v1.6c-1.1-0.2-2,0-2.9,0.7
		c-1.2,0.9-1.7,2.1-1.7,3.6V19H141.9z"/>
</g>
</svg>
