<?xml version="1.0" encoding="UTF-8"?>
<svg width="47px" height="18px" viewBox="0 0 47 18" version="1.1" xmlns="http://www.w3.org/2000/svg" xmlns:xlink="http://www.w3.org/1999/xlink">
    <!-- Generator: Sketch 50.2 (55047) - http://www.bohemiancoding.com/sketch -->
    <title>Artboard 1</title>
    <desc>Created with Sketch.</desc>
    <defs>
        <polygon id="path-1" points="0.0305 0.2284 6.656 0.2284 6.656 6.9314 0.0305 6.9314"></polygon>
        <polygon id="path-3" points="0 18.291 46.656 18.291 46.656 0 0 0"></polygon>
    </defs>
    <g id="Artboard-1" stroke="none" stroke-width="1" fill-rule="evenodd">
        <path d="M14.8405,14.7178 L9.1845,17.1328 L3.4755,14.8418 L1.0595,9.1858 L3.3505,3.4768 L9.0085,1.0608 L14.7165,3.3528 L17.1325,9.0098 L14.8405,14.7178 Z M15.5695,2.7578 C15.5175,2.6338 15.4175,2.5358 15.2925,2.4858 L9.1925,0.0368 C9.0675,-0.0132 8.9275,-0.0122 8.8025,0.0408 L2.7575,2.6228 C2.6335,2.6748 2.5355,2.7748 2.4855,2.9008 L0.0375,8.9998 C-0.0135,9.1258 -0.0125,9.2648 0.0415,9.3898 L2.6225,15.4348 C2.6745,15.5588 2.7755,15.6558 2.9005,15.7068 L9.0005,18.1558 C9.0605,18.1798 9.1255,18.1928 9.1895,18.1928 C9.2575,18.1928 9.3255,18.1788 9.3905,18.1508 L15.4345,15.5698 C15.5595,15.5168 15.6565,15.4158 15.7075,15.2908 L18.1555,9.1918 C18.2065,9.0658 18.2045,8.9258 18.1525,8.8018 L15.5695,2.7578 Z" id="Fill-1"></path>
        <polygon id="Fill-3" points="6.3874 6.4995 8.7984 9.0115 6.3764 11.6925 6.3764 12.8525 11.8174 12.8525 11.8174 11.6925 7.9644 11.6925 10.4084 9.0005 8.0204 6.4995 11.8174 6.4995 11.8174 5.3395 6.3874 5.3395"></polygon>
        <polygon id="Fill-5" points="25.673 11.105 22.37 11.105 22.37 9.308 25.605 9.308 25.605 8.307 22.37 8.307 22.37 6.627 25.673 6.627 25.673 5.626 21.233 5.626 21.233 12.105 25.673 12.105"></polygon>
        <path d="M28.3635,8.686 L28.3635,6.627 L29.9175,6.627 C30.5595,6.627 31.0255,7.035 31.0255,7.656 C31.0255,8.278 30.5595,8.686 29.9175,8.686 L28.3635,8.686 Z M32.2395,12.105 L30.6555,9.56 C31.4335,9.434 32.1915,8.812 32.1915,7.656 C32.1915,6.461 31.3555,5.626 30.0725,5.626 L27.2265,5.626 L27.2265,12.105 L28.3635,12.105 L28.3635,9.686 L29.4905,9.686 L30.9285,12.105 L32.2395,12.105 Z" id="Fill-7"></path>
        <path d="M36.4509,12.2319 C37.5779,12.2319 38.4809,11.7659 39.1219,11.0559 L39.1219,8.6279 L36.0529,8.6279 L36.0529,9.6279 L37.9859,9.6279 L37.9859,10.6389 C37.6939,10.9109 37.1109,11.2219 36.4509,11.2219 C35.1689,11.2219 34.2169,10.2309 34.2169,8.8709 C34.2169,7.5099 35.1689,6.5289 36.4509,6.5289 C37.1799,6.5289 37.7919,6.9079 38.1319,7.3939 L39.0639,6.8689 C38.5399,6.1219 37.7139,5.5189 36.4509,5.5189 C34.5759,5.5189 33.0509,6.8399 33.0509,8.8709 C33.0509,10.9009 34.5759,12.2319 36.4509,12.2319" id="Fill-9"></path>
        <g id="Group-13" transform="translate(40.000000, 5.291000)">
            <mask id="mask-2" fill="white">
                <use xlink:href="#path-1"></use>
            </mask>
            <g id="Clip-12"></g>
            <path d="M3.3435,5.9204 C2.0315,5.9204 1.1975,4.9104 1.1975,3.5794 C1.1975,2.2394 2.0315,1.2384 3.3435,1.2384 C4.6455,1.2384 5.4895,2.2394 5.4895,3.5794 C5.4895,4.9104 4.6455,5.9204 3.3435,5.9204 M3.3435,0.2284 C1.4015,0.2284 0.0305,1.6464 0.0305,3.5794 C0.0305,5.5124 1.4015,6.9314 3.3435,6.9314 C5.2865,6.9314 6.6565,5.5124 6.6565,3.5794 C6.6565,1.6464 5.2865,0.2284 3.3435,0.2284" id="Fill-11" mask="url(#mask-2)"></path>
        </g>
        <path d="M21.4616,15.9365 C21.4826,15.4965 21.7806,14.9725 22.3776,14.9725 C23.0106,14.9725 23.2936,15.5065 23.2976,15.9365 L21.4616,15.9365 Z M22.3826,14.7375 C21.6816,14.7375 21.1626,15.3295 21.1626,16.0615 C21.1626,16.8415 21.6916,17.3905 22.4296,17.3905 C22.8486,17.3905 23.1676,17.2445 23.4186,16.9825 L23.2776,16.8045 C23.0626,17.0355 22.7696,17.1555 22.4506,17.1555 C21.8546,17.1555 21.4876,16.7005 21.4616,16.1505 L23.5756,16.1505 L23.5756,16.0775 C23.5756,15.3495 23.1516,14.7375 22.3826,14.7375 Z" id="Fill-14"></path>
        <polygon id="Fill-16" fill="#000000" points="26.1486 14.8008 25.8246 14.8008 25.0446 15.8418 24.2596 14.8008 23.9356 14.8008 24.8766 16.0298 23.8776 17.3278 24.2016 17.3278 25.0446 16.2138 25.8816 17.3278 26.2066 17.3278 25.2066 16.0298"></polygon>
        <path d="M27.7595,17.1445 C27.4085,17.1445 27.0735,16.9255 26.9275,16.6845 L26.9275,15.4335 C27.0735,15.1935 27.4085,14.9835 27.7595,14.9835 C28.3245,14.9835 28.6435,15.4495 28.6435,16.0615 C28.6435,16.6735 28.3245,17.1445 27.7595,17.1445 M27.8065,14.7375 C27.4295,14.7375 27.1055,14.9415 26.9275,15.1985 L26.9275,14.8005 L26.6555,14.8005 L26.6555,18.2905 L26.9275,18.2905 L26.9275,16.9195 C27.1315,17.2075 27.4505,17.3905 27.8065,17.3905 C28.4815,17.3905 28.9375,16.8675 28.9375,16.0615 C28.9375,15.2505 28.4815,14.7375 27.8065,14.7375" id="Fill-18"></path>
        <mask id="mask-4" fill="white">
            <use xlink:href="#path-3"></use>
        </mask>
        <g id="Clip-21"></g>
        <polygon id="Fill-20" fill="#000000" mask="url(#mask-4)" points="29.558 17.328 29.83 17.328 29.83 13.838 29.558 13.838"></polygon>
        <path d="M31.6823,17.1445 C31.0963,17.1445 30.7613,16.6265 30.7613,16.0615 C30.7613,15.5015 31.0963,14.9835 31.6823,14.9835 C32.2793,14.9835 32.6093,15.5015 32.6093,16.0615 C32.6093,16.6265 32.2793,17.1445 31.6823,17.1445 M31.6823,14.7375 C30.9453,14.7375 30.4683,15.3235 30.4683,16.0615 C30.4683,16.7995 30.9453,17.3905 31.6823,17.3905 C32.4303,17.3905 32.9023,16.7995 32.9023,16.0615 C32.9023,15.3235 32.4303,14.7375 31.6823,14.7375" id="Fill-22" mask="url(#mask-4)"></path>
        <path d="M33.8112,15.2344 L33.8112,14.8004 L33.5392,14.8004 L33.5392,17.3284 L33.8112,17.3284 L33.8112,15.4864 C33.9252,15.2664 34.2712,15.0364 34.5282,15.0364 C34.5802,15.0364 34.6172,15.0364 34.6642,15.0464 L34.6642,14.7484 C34.3132,14.7484 34.0252,14.9524 33.8112,15.2344" id="Fill-23" mask="url(#mask-4)"></path>
        <path d="M35.2858,15.9365 C35.3068,15.4965 35.6048,14.9725 36.2018,14.9725 C36.8348,14.9725 37.1168,15.5065 37.1228,15.9365 L35.2858,15.9365 Z M36.2068,14.7375 C35.5058,14.7375 34.9868,15.3295 34.9868,16.0615 C34.9868,16.8415 35.5158,17.3905 36.2538,17.3905 C36.6728,17.3905 36.9918,17.2445 37.2428,16.9825 L37.1008,16.8045 C36.8878,17.0355 36.5948,17.1555 36.2748,17.1555 C35.6788,17.1555 35.3118,16.7005 35.2858,16.1505 L37.3998,16.1505 L37.3998,16.0775 C37.3998,15.3495 36.9758,14.7375 36.2068,14.7375 Z" id="Fill-24" mask="url(#mask-4)"></path>
        <path d="M38.3093,15.2344 L38.3093,14.8004 L38.0373,14.8004 L38.0373,17.3284 L38.3093,17.3284 L38.3093,15.4864 C38.4233,15.2664 38.7693,15.0364 39.0263,15.0364 C39.0783,15.0364 39.1153,15.0364 39.1623,15.0464 L39.1623,14.7484 C38.8113,14.7484 38.5233,14.9524 38.3093,15.2344" id="Fill-25" mask="url(#mask-4)"></path>
    </g>
</svg>