<?xml version="1.0" encoding="utf-8"?>
<!-- Generator: Adobe Illustrator 22.1.0, SVG Export Plug-In . SVG Version: 6.00 Build 0)  -->
<svg version="1.1" id="Слой_1" xmlns="http://www.w3.org/2000/svg" xmlns:xlink="http://www.w3.org/1999/xlink" x="0px" y="0px"
	 width="22px" height="22px" viewBox="0 0 22 22" enable-background="new 0 0 22 22" xml:space="preserve">
<title>Page 1</title>
<desc>Created with Sketch.</desc>
<g id="Page-1_1_">
	<g id="main---search" transform="translate(-39.000000, -208.000000)">
		<g id="Page-1" transform="translate(39.000000, 208.000000)">
			<g id="Group-3" transform="translate(0.000000, 0.058433)">
				<g id="Clip-2">
				</g>
				<path id="Fill-1" d="M18.4,5.9c0,0-0.9,0.8-1.7,1.7c-0.9,0.8,0,2.5,0,2.5l5.1-5l-5.1-5c0,0-0.9,1.7,0,2.5
					l1.7,1.7l0.1,0.1H0v1.4h18.5L18.4,5.9z"/>
			</g>
			<g id="Group-6" transform="translate(0.000000, 11.829134)">
				<g id="Clip-5">
				</g>
				<path id="Fill-4" d="M3.4,4.3l1.7-1.7c0.9-0.8,0-2.5,0-2.5L0,5.1l5.1,5c0,0,0.9-1.7,0-2.5L3.4,5.9L3.3,5.8h18.5
					V4.4H3.3L3.4,4.3z"/>
			</g>
		</g>
	</g>
</g>
</svg>
