<svg width="20" height="20" viewBox="0 0 20 20" fill="none" xmlns="http://www.w3.org/2000/svg">
<g clip-path="url(#clip0)">
<path d="M3 13H2V18H3V13Z" fill="url(#paint_current_pool1_linear)"/>
<path d="M6 6H5V18H6V6Z" fill="url(#paint_current_pool2_linear)"/>
<path d="M9 11H8V18H9V11Z" fill="url(#paint_current_pool3_linear)"/>
<path d="M12 8H11V18H12V8Z" fill="url(#paint_current_pool4_linear)"/>
<path d="M15 4H14V18H15V4Z" fill="url(#paint_current_pool5_linear)"/>
<path d="M18 10H17V18H18V10Z" fill="url(#paint_current_pool6_linear)"/>
<path d="M20 20H0V19H20V20Z" fill="url(#paint_current_pool7_linear)"/>
</g>
<defs>
<linearGradient id="paint_current_pool1_linear" x1="2" y1="15.5" x2="3" y2="15.5" gradientUnits="userSpaceOnUse">
<stop stop-color="#2F80ED"/>
<stop offset="1" stop-color="#2D9EE0"/>
</linearGradient>
<linearGradient id="paint_current_pool2_linear" x1="5" y1="12" x2="6" y2="12" gradientUnits="userSpaceOnUse">
<stop stop-color="#2F80ED"/>
<stop offset="1" stop-color="#2D9EE0"/>
</linearGradient>
<linearGradient id="paint_current_pool3_linear" x1="8" y1="14.5" x2="9" y2="14.5" gradientUnits="userSpaceOnUse">
<stop stop-color="#2F80ED"/>
<stop offset="1" stop-color="#2D9EE0"/>
</linearGradient>
<linearGradient id="paint_current_pool4_linear" x1="11" y1="13" x2="12" y2="13" gradientUnits="userSpaceOnUse">
<stop stop-color="#2F80ED"/>
<stop offset="1" stop-color="#2D9EE0"/>
</linearGradient>
<linearGradient id="paint_current_pool5_linear" x1="14" y1="11" x2="15" y2="11" gradientUnits="userSpaceOnUse">
<stop stop-color="#2F80ED"/>
<stop offset="1" stop-color="#2D9EE0"/>
</linearGradient>
<linearGradient id="paint_current_pool6_linear" x1="17" y1="14" x2="18" y2="14" gradientUnits="userSpaceOnUse">
<stop stop-color="#2F80ED"/>
<stop offset="1" stop-color="#2D9EE0"/>
</linearGradient>
<linearGradient id="paint_current_pool7_linear" x1="0" y1="19.5" x2="20" y2="19.5" gradientUnits="userSpaceOnUse">
<stop stop-color="#2F80ED"/>
<stop offset="1" stop-color="#2D9EE0"/>
</linearGradient>
<clipPath id="clip0">
<rect width="20" height="20" fill="white"/>
</clipPath>
</defs>
</svg>
