<svg id="Capa_1" enable-background="new 0 0 512 512" height="512" viewBox="0 0 512 512" width="512" xmlns="http://www.w3.org/2000/svg"><g><path d="m450.167 169.743h-59.667-.509c7.089-11.671 11.176-25.358 11.176-39.982 0-42.59-33.5-77.156-80.5-77.156h.02c-10.31-30.544-39.211-52.605-73.188-52.605-40.296 0-73.465 31.024-76.922 70.438-40.73 2.097-73.222 35.892-73.222 77.135 0 11.563 2.571 22.531 7.144 32.388v83.165l-28.699 57.398c-9.137 18.276-13.967 38.737-13.967 59.169 0 72.954 59.353 132.307 132.307 132.307h106.719c72.955 0 132.308-59.353 132.308-132.307 0-20.433-4.83-40.894-13.969-59.17l-28.698-57.397v-34.913l38.394 38.394 21.213-21.213-45.65-45.65h45.71zm-358.333 209.95c0-15.8 3.734-31.621 10.8-45.753l30.803-61.605h228.126l30.803 61.605c7.065 14.132 10.801 29.953 10.801 45.753 0 56.412-45.895 102.307-102.308 102.307h-106.719c-56.412 0-102.306-45.895-102.306-102.307zm35.521-232.12c0-26.048 21.191-47.239 47.239-47.239s47.239 21.192 47.239 47.239c0 8.009-2.01 15.555-5.542 22.17h-83.395c-3.531-6.616-5.541-14.162-5.541-22.17zm120.144-117.573c19.868 0 36.898 12.335 43.867 29.744-15.846 7.399-28.776 20.016-36.575 35.634-6.922.457-13.595 1.831-19.904 4-8.923-11.14-20.855-19.762-34.562-24.62 1.296-24.899 21.959-44.758 47.174-44.758zm123.668 99.761c0 16.824-8.847 31.612-22.126 39.982h-11.942c-1.095-31.847-21.549-58.852-49.946-69.586 8.666-10.745 21.928-17.636 36.775-17.636 26.047.001 47.239 21.192 47.239 47.24zm-122.592 39.982c2.11-7.027 3.258-14.466 3.258-22.17 0-7.305-1.041-14.366-2.945-21.069 3.544-.852 7.237-1.315 11.038-1.315 25.147 0 45.761 19.752 47.158 44.555h-58.509zm-114.076 30h226v42.591h-226z"/></g></svg>