<svg width="24" height="24" fill="none" xmlns="http://www.w3.org/2000/svg"><path opacity=".6" fill-rule="evenodd" clip-rule="evenodd" d="M12 12a4.5 4.5 0 1 0 0-9 4.5 4.5 0 0 0 0 9Zm-2-6.5h4v4h-4v-4Zm1 1h2v2h-2v-2Z" fill="#FF23C1"/><path opacity=".4" fill-rule="evenodd" clip-rule="evenodd" d="M17.5 21a4.5 4.5 0 1 0 0-9 4.5 4.5 0 0 0 0 9Zm2.5-4.5a2.5 2.5 0 1 1-5 0 2.5 2.5 0 0 1 5 0Zm-1 0a1.5 1.5 0 1 1-3 0 1.5 1.5 0 0 1 3 0Z" fill="#FF23C1"/><path opacity=".8" fill-rule="evenodd" clip-rule="evenodd" d="M11 16.5a4.5 4.5 0 1 1-9 0 4.5 4.5 0 0 1 9 0ZM6 16v-2h1v2h2v1H7v2H6v-2H4v-1h2Z" fill="#FF23C1"/></svg>