<svg width="20" height="20" viewBox="0 0 20 20" fill="none" xmlns="http://www.w3.org/2000/svg">
<path d="M19.1212 8.65683H18.8284V7.77781V4.65295C18.8284 3.62988 17.9961 2.79753 16.9731 2.79753H8.92739L3.4994 1.24667L3.49468 1.24558L3.48995 1.24413C3.48667 1.24331 3.48343 1.24292 3.48019 1.24222C3.47515 1.24116 3.47011 1.24007 3.46507 1.23925C3.4605 1.23851 3.45601 1.23804 3.45144 1.23749C3.44612 1.23687 3.44085 1.23632 3.43558 1.23601C3.43128 1.23577 3.42702 1.23573 3.42273 1.23566C3.41726 1.23558 3.41183 1.23554 3.4064 1.23577C3.40238 1.23593 3.39835 1.23632 3.39437 1.23663C3.38878 1.2371 3.3832 1.23761 3.37769 1.23843C3.37394 1.23898 3.37023 1.23968 3.36652 1.24034C3.36082 1.24136 3.35519 1.24245 3.34961 1.24382C3.34613 1.24468 3.34273 1.24566 3.33929 1.24663C3.33359 1.24827 3.32797 1.24995 3.32234 1.25191C3.31918 1.25304 3.31605 1.25425 3.31289 1.2555C3.30723 1.25769 3.3016 1.25999 3.29609 1.26253C3.29316 1.2639 3.29031 1.26538 3.28742 1.26683C3.28191 1.2696 3.27648 1.27241 3.27117 1.27558C3.2684 1.27718 3.26574 1.2789 3.26301 1.28062C3.25777 1.2839 3.25262 1.28726 3.24762 1.29089C3.245 1.29276 3.24246 1.29479 3.23988 1.29679C3.23508 1.3005 3.23031 1.30429 3.22574 1.30831C3.22317 1.31057 3.22071 1.31296 3.21821 1.3153C3.21391 1.31936 3.20965 1.32343 3.20559 1.32772C3.20305 1.33042 3.20067 1.33323 3.19821 1.33604C3.1945 1.3403 3.19082 1.3446 3.18735 1.34909C3.18485 1.35233 3.1825 1.35565 3.18012 1.35897C3.17704 1.36331 3.17399 1.36768 3.17118 1.37217C3.16876 1.376 3.16653 1.37999 3.1643 1.38393C3.16184 1.38827 3.15938 1.39264 3.15715 1.39713C3.15497 1.40151 3.15301 1.406 3.15102 1.41049C3.14907 1.41491 3.14715 1.41932 3.14544 1.42385C3.14364 1.42862 3.14208 1.4335 3.14048 1.43842C3.13946 1.44158 3.13821 1.44455 3.13727 1.44776L3.13618 1.45248L3.13473 1.45721L2.79975 2.79746H1.85655C0.835546 2.79746 0.00464826 3.62644 0.00128905 4.6467L0.000976562 4.65288V16.0585C0.000976562 16.2202 0.132611 16.3515 0.293931 16.3515C0.455642 16.3515 0.586886 16.2202 0.586886 16.0585V6.0041C0.919058 6.31643 1.36568 6.50837 1.85655 6.50837H16.9731C17.6726 6.50892 18.2425 7.07815 18.2425 7.77784V9.82868H15.0196C15.0111 9.82868 15.0021 9.82923 14.9937 9.82997C14.9844 9.83079 14.9751 9.83212 14.9661 9.8338L14.962 9.83443C14.9544 9.83595 14.9469 9.83798 14.9394 9.84009L14.9345 9.84138C14.9278 9.84341 14.9214 9.84583 14.915 9.84829C14.9125 9.84923 14.91 9.85001 14.9075 9.85103C14.9021 9.85325 14.8969 9.85587 14.8917 9.85841C14.8883 9.86005 14.8848 9.86157 14.8815 9.86333C14.8774 9.86548 14.8736 9.86794 14.8697 9.87028C14.8653 9.87286 14.8609 9.87536 14.8567 9.87817C14.8539 9.88005 14.8512 9.8822 14.8485 9.88419C14.8435 9.88778 14.8385 9.89134 14.8337 9.89528C14.8316 9.897 14.8297 9.89892 14.8277 9.90067C14.8226 9.90513 14.8175 9.90954 14.8127 9.91438C14.8098 9.91723 14.8072 9.92036 14.8045 9.92333C14.8007 9.92743 14.7968 9.93145 14.7932 9.93583C14.7872 9.94321 14.7815 9.95087 14.7762 9.9588L13.2135 12.3029C13.2027 12.3192 13.1934 12.3365 13.1861 12.3545C13.1834 12.3613 13.1811 12.3681 13.1789 12.3749L13.1768 12.381C13.1746 12.3882 13.1729 12.3956 13.1713 12.4028L13.1699 12.4085C13.1686 12.4151 13.1678 12.4217 13.167 12.4283C13.1666 12.4311 13.1661 12.4339 13.1658 12.4368C13.1652 12.4422 13.1651 12.4476 13.1649 12.453C13.1647 12.4572 13.1644 12.4613 13.1644 12.4655C13.1644 12.4695 13.1647 12.4735 13.1649 12.4775C13.1651 12.4831 13.1652 12.4887 13.1658 12.4942C13.1661 12.4969 13.1666 12.4996 13.1669 12.5023C13.1678 12.509 13.1686 12.5157 13.17 12.5224L13.1713 12.5279C13.1729 12.5352 13.1746 12.5426 13.1768 12.5499L13.1789 12.5561C13.1812 12.5628 13.1834 12.5697 13.1862 12.5764C13.1935 12.5944 13.2027 12.6117 13.2137 12.6281L14.776 14.9714C14.7823 14.9807 14.7894 14.99 14.7966 14.9985C14.799 15.0013 14.8016 15.0039 14.804 15.0066C14.809 15.012 14.8141 15.0173 14.8195 15.0223C14.8227 15.0253 14.8258 15.0282 14.829 15.0309C14.8347 15.0358 14.8406 15.0404 14.8466 15.0448C14.8494 15.0468 14.852 15.049 14.8548 15.0509C14.8635 15.0569 14.8727 15.0624 14.8821 15.0674C14.8844 15.0686 14.8869 15.0697 14.8893 15.0709C14.8968 15.0746 14.9044 15.0781 14.9123 15.0812C14.9153 15.0824 14.9184 15.0835 14.9215 15.0846C14.9289 15.0872 14.9365 15.0896 14.9442 15.0916C14.9474 15.0925 14.9505 15.0933 14.9537 15.0941C14.9617 15.0959 14.9697 15.0973 14.9779 15.0985C14.9808 15.0989 14.9838 15.0995 14.9867 15.0999C14.9968 15.101 15.0071 15.1016 15.0174 15.1017L15.0199 15.1019L18.2426 15.1018V17.1528C18.2426 17.8529 17.6731 18.4224 16.9732 18.4224H1.85671C1.15674 18.4224 0.587238 17.8529 0.587238 17.1528L0.587003 17.1483V15.9806C0.587003 15.8193 0.45576 15.6877 0.294049 15.6877C0.132728 15.6877 0.00109374 15.8193 0.00109374 15.9806V17.1528C0.00109374 17.1559 0.00144529 17.1588 0.00156247 17.1618C0.00644505 18.1808 0.836679 19.0083 1.85671 19.0083H16.9732C17.9961 19.0083 18.8284 18.1761 18.8286 17.1531V15.1018H19.1214C19.6059 15.1018 20.0001 14.7076 20.0001 14.2231V9.53553C19.9999 9.05103 19.6057 8.65683 19.1212 8.65683ZM3.62971 1.89324L8.79895 3.37024L12.2642 4.36031H3.0131L3.62971 1.89324ZM18.2425 6.42654C17.9104 6.11429 17.4638 5.92239 16.9731 5.92239L16.9715 5.92246H1.85655C1.15655 5.92246 0.587042 5.35296 0.587042 4.65295C0.587042 3.95295 1.15655 3.38344 1.85655 3.38344H2.65331L2.40918 4.36031H1.85663C1.69484 4.36031 1.56368 4.49148 1.56368 4.65327C1.56368 4.81506 1.69484 4.94622 1.85663 4.94622H2.63691L2.63816 4.9463L14.3549 4.94622H14.357H16.5821C16.7439 4.94622 16.8751 4.81506 16.8751 4.65327C16.8751 4.49148 16.7439 4.36031 16.5821 4.36031H14.3969L10.978 3.38344H16.973C17.673 3.38344 18.2425 3.95295 18.2425 4.65295V6.42654ZM19.414 14.223C19.414 14.3844 19.2827 14.5158 19.1212 14.5158H15.1763L13.8093 12.4653L15.1763 10.4146H19.1212C19.1253 10.4146 19.1293 10.4141 19.1334 10.4139C19.2317 10.4126 19.326 10.3951 19.414 10.3639V14.223ZM19.1212 9.82833L19.1152 9.82864H18.8284V9.24273H19.1212C19.2827 9.24273 19.414 9.3741 19.414 9.53553C19.414 9.69697 19.2827 9.82833 19.1212 9.82833Z" fill="black"/>
<path d="M19.1212 8.65683H18.8284V7.77781V4.65295C18.8284 3.62988 17.9961 2.79753 16.9731 2.79753H8.92739L3.4994 1.24667L3.49468 1.24558L3.48995 1.24413C3.48667 1.24331 3.48343 1.24292 3.48019 1.24222C3.47515 1.24116 3.47011 1.24007 3.46507 1.23925C3.4605 1.23851 3.45601 1.23804 3.45144 1.23749C3.44612 1.23687 3.44085 1.23632 3.43558 1.23601C3.43128 1.23577 3.42702 1.23573 3.42273 1.23566C3.41726 1.23558 3.41183 1.23554 3.4064 1.23577C3.40238 1.23593 3.39835 1.23632 3.39437 1.23663C3.38878 1.2371 3.3832 1.23761 3.37769 1.23843C3.37394 1.23898 3.37023 1.23968 3.36652 1.24034C3.36082 1.24136 3.35519 1.24245 3.34961 1.24382C3.34613 1.24468 3.34273 1.24566 3.33929 1.24663C3.33359 1.24827 3.32797 1.24995 3.32234 1.25191C3.31918 1.25304 3.31605 1.25425 3.31289 1.2555C3.30723 1.25769 3.3016 1.25999 3.29609 1.26253C3.29316 1.2639 3.29031 1.26538 3.28742 1.26683C3.28191 1.2696 3.27648 1.27241 3.27117 1.27558C3.2684 1.27718 3.26574 1.2789 3.26301 1.28062C3.25777 1.2839 3.25262 1.28726 3.24762 1.29089C3.245 1.29276 3.24246 1.29479 3.23988 1.29679C3.23508 1.3005 3.23031 1.30429 3.22574 1.30831C3.22317 1.31057 3.22071 1.31296 3.21821 1.3153C3.21391 1.31936 3.20965 1.32343 3.20559 1.32772C3.20305 1.33042 3.20067 1.33323 3.19821 1.33604C3.1945 1.3403 3.19082 1.3446 3.18735 1.34909C3.18485 1.35233 3.1825 1.35565 3.18012 1.35897C3.17704 1.36331 3.17399 1.36768 3.17118 1.37217C3.16876 1.376 3.16653 1.37999 3.1643 1.38393C3.16184 1.38827 3.15938 1.39264 3.15715 1.39713C3.15497 1.40151 3.15301 1.406 3.15102 1.41049C3.14907 1.41491 3.14715 1.41932 3.14544 1.42385C3.14364 1.42862 3.14208 1.4335 3.14048 1.43842C3.13946 1.44158 3.13821 1.44455 3.13727 1.44776L3.13618 1.45248L3.13473 1.45721L2.79975 2.79746H1.85655C0.835546 2.79746 0.00464826 3.62644 0.00128905 4.6467L0.000976562 4.65288V16.0585C0.000976562 16.2202 0.132611 16.3515 0.293931 16.3515C0.455642 16.3515 0.586886 16.2202 0.586886 16.0585V6.0041C0.919058 6.31643 1.36568 6.50837 1.85655 6.50837H16.9731C17.6726 6.50892 18.2425 7.07815 18.2425 7.77784V9.82868H15.0196C15.0111 9.82868 15.0021 9.82923 14.9937 9.82997C14.9844 9.83079 14.9751 9.83212 14.9661 9.8338L14.962 9.83443C14.9544 9.83595 14.9469 9.83798 14.9394 9.84009L14.9345 9.84138C14.9278 9.84341 14.9214 9.84583 14.915 9.84829C14.9125 9.84923 14.91 9.85001 14.9075 9.85103C14.9021 9.85325 14.8969 9.85587 14.8917 9.85841C14.8883 9.86005 14.8848 9.86157 14.8815 9.86333C14.8774 9.86548 14.8736 9.86794 14.8697 9.87028C14.8653 9.87286 14.8609 9.87536 14.8567 9.87817C14.8539 9.88005 14.8512 9.8822 14.8485 9.88419C14.8435 9.88778 14.8385 9.89134 14.8337 9.89528C14.8316 9.897 14.8297 9.89892 14.8277 9.90067C14.8226 9.90513 14.8175 9.90954 14.8127 9.91438C14.8098 9.91723 14.8072 9.92036 14.8045 9.92333C14.8007 9.92743 14.7968 9.93145 14.7932 9.93583C14.7872 9.94321 14.7815 9.95087 14.7762 9.9588L13.2135 12.3029C13.2027 12.3192 13.1934 12.3365 13.1861 12.3545C13.1834 12.3613 13.1811 12.3681 13.1789 12.3749L13.1768 12.381C13.1746 12.3882 13.1729 12.3956 13.1713 12.4028L13.1699 12.4085C13.1686 12.4151 13.1678 12.4217 13.167 12.4283C13.1666 12.4311 13.1661 12.4339 13.1658 12.4368C13.1652 12.4422 13.1651 12.4476 13.1649 12.453C13.1647 12.4572 13.1644 12.4613 13.1644 12.4655C13.1644 12.4695 13.1647 12.4735 13.1649 12.4775C13.1651 12.4831 13.1652 12.4887 13.1658 12.4942C13.1661 12.4969 13.1666 12.4996 13.1669 12.5023C13.1678 12.509 13.1686 12.5157 13.17 12.5224L13.1713 12.5279C13.1729 12.5352 13.1746 12.5426 13.1768 12.5499L13.1789 12.5561C13.1812 12.5628 13.1834 12.5697 13.1862 12.5764C13.1935 12.5944 13.2027 12.6117 13.2137 12.6281L14.776 14.9714C14.7823 14.9807 14.7894 14.99 14.7966 14.9985C14.799 15.0013 14.8016 15.0039 14.804 15.0066C14.809 15.012 14.8141 15.0173 14.8195 15.0223C14.8227 15.0253 14.8258 15.0282 14.829 15.0309C14.8347 15.0358 14.8406 15.0404 14.8466 15.0448C14.8494 15.0468 14.852 15.049 14.8548 15.0509C14.8635 15.0569 14.8727 15.0624 14.8821 15.0674C14.8844 15.0686 14.8869 15.0697 14.8893 15.0709C14.8968 15.0746 14.9044 15.0781 14.9123 15.0812C14.9153 15.0824 14.9184 15.0835 14.9215 15.0846C14.9289 15.0872 14.9365 15.0896 14.9442 15.0916C14.9474 15.0925 14.9505 15.0933 14.9537 15.0941C14.9617 15.0959 14.9697 15.0973 14.9779 15.0985C14.9808 15.0989 14.9838 15.0995 14.9867 15.0999C14.9968 15.101 15.0071 15.1016 15.0174 15.1017L15.0199 15.1019L18.2426 15.1018V17.1528C18.2426 17.8529 17.6731 18.4224 16.9732 18.4224H1.85671C1.15674 18.4224 0.587238 17.8529 0.587238 17.1528L0.587003 17.1483V15.9806C0.587003 15.8193 0.45576 15.6877 0.294049 15.6877C0.132728 15.6877 0.00109374 15.8193 0.00109374 15.9806V17.1528C0.00109374 17.1559 0.00144529 17.1588 0.00156247 17.1618C0.00644505 18.1808 0.836679 19.0083 1.85671 19.0083H16.9732C17.9961 19.0083 18.8284 18.1761 18.8286 17.1531V15.1018H19.1214C19.6059 15.1018 20.0001 14.7076 20.0001 14.2231V9.53553C19.9999 9.05103 19.6057 8.65683 19.1212 8.65683ZM3.62971 1.89324L8.79895 3.37024L12.2642 4.36031H3.0131L3.62971 1.89324ZM18.2425 6.42654C17.9104 6.11429 17.4638 5.92239 16.9731 5.92239L16.9715 5.92246H1.85655C1.15655 5.92246 0.587042 5.35296 0.587042 4.65295C0.587042 3.95295 1.15655 3.38344 1.85655 3.38344H2.65331L2.40918 4.36031H1.85663C1.69484 4.36031 1.56368 4.49148 1.56368 4.65327C1.56368 4.81506 1.69484 4.94622 1.85663 4.94622H2.63691L2.63816 4.9463L14.3549 4.94622H14.357H16.5821C16.7439 4.94622 16.8751 4.81506 16.8751 4.65327C16.8751 4.49148 16.7439 4.36031 16.5821 4.36031H14.3969L10.978 3.38344H16.973C17.673 3.38344 18.2425 3.95295 18.2425 4.65295V6.42654ZM19.414 14.223C19.414 14.3844 19.2827 14.5158 19.1212 14.5158H15.1763L13.8093 12.4653L15.1763 10.4146H19.1212C19.1253 10.4146 19.1293 10.4141 19.1334 10.4139C19.2317 10.4126 19.326 10.3951 19.414 10.3639V14.223ZM19.1212 9.82833L19.1152 9.82864H18.8284V9.24273H19.1212C19.2827 9.24273 19.414 9.3741 19.414 9.53553C19.414 9.69697 19.2827 9.82833 19.1212 9.82833Z" fill="url(#paint_latest_price1_linear)"/>
<path d="M16.1914 11.3914C15.599 11.3914 15.1172 11.8732 15.1172 12.4656C15.1172 13.0579 15.599 13.5397 16.1914 13.5397C16.7837 13.5397 17.2655 13.0579 17.2655 12.4656C17.2655 11.8732 16.7837 11.3914 16.1914 11.3914ZM16.1914 12.9538C15.9221 12.9538 15.7031 12.7348 15.7031 12.4656C15.7031 12.1963 15.9221 11.9773 16.1914 11.9773C16.4606 11.9773 16.6796 12.1963 16.6796 12.4656C16.6796 12.7348 16.4606 12.9538 16.1914 12.9538Z" fill="black"/>
<path d="M16.1914 11.3914C15.599 11.3914 15.1172 11.8732 15.1172 12.4656C15.1172 13.0579 15.599 13.5397 16.1914 13.5397C16.7837 13.5397 17.2655 13.0579 17.2655 12.4656C17.2655 11.8732 16.7837 11.3914 16.1914 11.3914ZM16.1914 12.9538C15.9221 12.9538 15.7031 12.7348 15.7031 12.4656C15.7031 12.1963 15.9221 11.9773 16.1914 11.9773C16.4606 11.9773 16.6796 12.1963 16.6796 12.4656C16.6796 12.7348 16.4606 12.9538 16.1914 12.9538Z" fill="url(#paint_latest_price2_linear)"/>
<defs>
<linearGradient id="paint_latest_price1_linear" x1="0.000976562" y1="10.1219" x2="20.0001" y2="10.1219" gradientUnits="userSpaceOnUse">
<stop stop-color="#E52D27"/>
<stop offset="1" stop-color="#B31217"/>
</linearGradient>
<linearGradient id="paint_latest_price2_linear" x1="15.1172" y1="12.4655" x2="17.2655" y2="12.4655" gradientUnits="userSpaceOnUse">
<stop stop-color="#E52D27"/>
<stop offset="1" stop-color="#B31217"/>
</linearGradient>
</defs>
</svg>
