<svg width="24" height="24" fill="none" xmlns="http://www.w3.org/2000/svg"><path opacity=".5" d="M11.875 10.938 4.47 6.973a.268.268 0 0 1 .013-.478l7.403-3.47a.266.266 0 0 1 .226 0l7.404 3.47c.199.093.206.375.012.478l-7.403 3.965a.266.266 0 0 1-.251 0Z" fill="#8F67FF"/><path d="M11.88 10.94c.037.02.079.03.12.03V3a.265.265 0 0 0-.113.025l-7.403 3.47a.268.268 0 0 0-.017.476l7.412 3.97Z" fill="#fff" fill-opacity=".15"/><path opacity=".75" d="M12.467 20.45v-8.482c0-.099.054-.19.14-.236l6.934-3.73a.267.267 0 0 1 .392.236v8.234a.268.268 0 0 1-.134.233l-6.933 3.978a.267.267 0 0 1-.4-.232Z" fill="#8F67FF"/><path opacity=".25" fill-rule="evenodd" clip-rule="evenodd" d="M12.467 12.879v7.601a.25.25 0 0 0 .374.217l6.967-3.997a.25.25 0 0 0 .09-.09l-7.431-3.731Z" fill="#fff"/><path d="M11.467 20.45v-8.482a.268.268 0 0 0-.141-.236l-6.933-3.73A.267.267 0 0 0 4 8.238v8.234c0 .096.051.185.134.233l6.934 3.978a.267.267 0 0 0 .399-.232Z" fill="#8F67FF"/><path opacity=".25" d="M11.466 12.879v7.572a.267.267 0 0 1-.398.232l-6.934-3.978a.27.27 0 0 1-.097-.096l7.43-3.73Z" fill="#fff"/></svg>