<?xml version="1.0" encoding="utf-8"?>
<!-- Generator: Adobe Illustrator 22.1.0, SVG Export Plug-In . SVG Version: 6.00 Build 0)  -->
<svg version="1.1" id="Слой_1" xmlns="http://www.w3.org/2000/svg" xmlns:xlink="http://www.w3.org/1999/xlink" x="0px" y="0px"
	 width="124.667px" height="48.795px" viewBox="0 0 124.667 48.795" enable-background="new 0 0 124.667 48.795"
	 xml:space="preserve">
<g>
	<path d="M24.424,48.35c-0.171,0-0.343-0.033-0.503-0.098L7.709,41.745c-0.333-0.133-0.599-0.393-0.739-0.724L0.109,24.955
		c-0.141-0.331-0.146-0.701-0.01-1.036L6.606,7.708C6.74,7.375,7,7.109,7.33,6.97l16.065-6.861c0.331-0.141,0.703-0.144,1.036-0.01
		l16.211,6.508c0.333,0.133,0.599,0.393,0.739,0.724l6.861,16.063c0.141,0.331,0.146,0.701,0.01,1.036L41.746,40.64
		c-0.133,0.333-0.393,0.599-0.724,0.739L24.958,48.24C24.786,48.315,24.605,48.35,24.424,48.35z M9.238,39.446l15.171,6.09
		l15.034-6.42l6.092-15.171l-6.42-15.033L23.943,2.819L8.905,9.242l-6.09,15.171L9.238,39.446z"/>
	<g>
		<path d="M27.664,23.921l-6.497,7.155h10.239v3.084h-14.46v-3.084l6.437-7.125l-6.407-6.677v-3.083h14.43v3.083H21.317
			L27.664,23.921z"/>
	</g>
	<path d="M56.433,32.173V14.952h11.799v2.66h-8.778v4.466h8.597v2.659h-8.597v4.777h8.778v2.659H56.433z"/>
	<path d="M82.2,32.173l-3.822-6.429h-2.995v6.429h-3.021V14.952h7.565c3.409,0,5.629,2.221,5.629,5.396
		c0,3.072-2.014,4.724-4.08,5.06l4.209,6.765H82.2z M82.458,20.349c0-1.652-1.239-2.737-2.944-2.737h-4.131v5.473h4.131
		C81.218,23.085,82.458,22.001,82.458,20.349z"/>
	<path d="M87.84,23.576c0-5.396,4.053-8.908,9.036-8.908c3.357,0,5.552,1.601,6.946,3.589l-2.479,1.394
		c-0.904-1.291-2.531-2.298-4.467-2.298c-3.408,0-5.938,2.608-5.938,6.223c0,3.614,2.53,6.248,5.938,6.248
		c1.756,0,3.305-0.826,4.08-1.549V25.59h-5.138v-2.66h8.158v6.454c-1.704,1.885-4.105,3.124-7.1,3.124
		C91.894,32.509,87.84,28.971,87.84,23.576z"/>
	<path d="M106.392,23.576c0-5.138,3.64-8.908,8.804-8.908S124,18.438,124,23.576s-3.64,8.908-8.804,8.908
		S106.392,28.713,106.392,23.576z M120.902,23.576c0-3.563-2.247-6.223-5.706-6.223c-3.486,0-5.706,2.66-5.706,6.223
		c0,3.538,2.22,6.222,5.706,6.222C118.655,29.798,120.902,27.113,120.902,23.576z"/>
	<g>
		<path d="M56.837,42.45c0-2.085,1.475-3.768,3.471-3.768c2.19,0,3.396,1.743,3.396,3.813v0.208h-6.017
			c0.074,1.564,1.116,2.86,2.814,2.86c0.909,0,1.744-0.342,2.353-0.998l0.402,0.506c-0.715,0.745-1.623,1.162-2.815,1.162
			C58.341,46.233,56.837,44.669,56.837,42.45z M60.292,39.352c-1.698,0-2.546,1.489-2.606,2.74h5.228
			C62.898,40.871,62.094,39.352,60.292,39.352z"/>
		<path d="M70.45,46.054l-2.384-3.173l-2.398,3.173h-0.923l2.845-3.694l-2.681-3.501h0.923l2.234,2.964l2.22-2.964h0.923
			l-2.681,3.501l2.845,3.694H70.45z"/>
		<path d="M73.608,44.892v3.902h-0.775V38.86h0.775v1.133c0.506-0.73,1.429-1.311,2.502-1.311c1.922,0,3.217,1.459,3.217,3.768
			c0,2.293-1.296,3.783-3.217,3.783C75.097,46.233,74.189,45.712,73.608,44.892z M78.493,42.45c0-1.743-0.909-3.068-2.517-3.068
			c-0.998,0-1.951,0.595-2.368,1.281v3.56c0.417,0.685,1.37,1.31,2.368,1.31C77.585,45.532,78.493,44.192,78.493,42.45z"/>
		<path d="M81.278,46.054v-9.935h0.775v9.935H81.278z"/>
		<path d="M84.049,42.45c0-2.1,1.356-3.768,3.455-3.768c2.13,0,3.471,1.668,3.471,3.768s-1.34,3.783-3.471,3.783
			C85.404,46.233,84.049,44.55,84.049,42.45z M90.14,42.45c0-1.593-0.939-3.068-2.637-3.068c-1.668,0-2.621,1.475-2.621,3.068
			c0,1.609,0.953,3.083,2.621,3.083C89.202,45.532,90.14,44.058,90.14,42.45z"/>
		<path d="M92.97,46.054V38.86h0.775v1.236c0.611-0.804,1.429-1.385,2.427-1.385v0.848c-0.134-0.029-0.238-0.029-0.387-0.029
			c-0.73,0-1.713,0.655-2.04,1.281v5.242H92.97z"/>
		<path d="M97.274,42.45c0-2.085,1.475-3.768,3.471-3.768c2.19,0,3.396,1.743,3.396,3.813v0.208h-6.017
			c0.074,1.564,1.116,2.86,2.814,2.86c0.909,0,1.743-0.342,2.353-0.998l0.402,0.506c-0.715,0.745-1.623,1.162-2.815,1.162
			C98.779,46.233,97.274,44.669,97.274,42.45z M100.73,39.352c-1.698,0-2.546,1.489-2.606,2.74h5.228
			C103.336,40.871,102.532,39.352,100.73,39.352z"/>
		<path d="M106.137,46.054V38.86h0.775v1.236c0.611-0.804,1.429-1.385,2.427-1.385v0.848c-0.134-0.029-0.238-0.029-0.387-0.029
			c-0.73,0-1.713,0.655-2.04,1.281v5.242H106.137z"/>
	</g>
</g>
</svg>
