<?xml version="1.0" encoding="utf-8"?>
<!-- Generator: Adobe Illustrator 22.1.0, SVG Export Plug-In . SVG Version: 6.00 Build 0)  -->
<svg version="1.1" id="Слой_1" xmlns="http://www.w3.org/2000/svg" xmlns:xlink="http://www.w3.org/1999/xlink" x="0px" y="0px"
	 width="55.141px" height="6.453px" viewBox="0 0 55.141 6.453" enable-background="new 0 0 55.141 6.453" xml:space="preserve">
<g>
	<path fill="none" d="M20.922,0.956c-1.241,0-2.031,0.947-2.031,2.215c0,1.259,0.79,2.215,2.031,2.215
		c1.232,0,2.031-0.956,2.031-2.215C22.953,1.903,22.153,0.956,20.922,0.956z"/>
	<path fill="none" d="M9.266,2.022c0-0.588-0.441-0.974-1.048-0.974H6.747v1.949h1.471C8.825,2.997,9.266,2.611,9.266,2.022z"/>
	<polygon points="0,6.232 4.201,6.232 4.201,5.286 1.076,5.286 1.076,3.585 4.137,3.585 4.137,2.638 1.076,2.638 1.076,1.048
		4.201,1.048 4.201,0.101 0,0.101 	"/>
	<path d="M10.369,2.022c0-1.131-0.791-1.921-2.004-1.921H5.671v6.131h1.075V3.943h1.066l1.361,2.289h1.241L8.916,3.824
		C9.652,3.705,10.369,3.116,10.369,2.022z M6.747,2.997V1.048h1.471c0.607,0,1.048,0.386,1.048,0.974S8.825,2.997,8.218,2.997H6.747
		z"/>
	<path d="M14.023,3.889h1.829v0.956c-0.276,0.257-0.827,0.551-1.452,0.551c-1.213,0-2.114-0.938-2.114-2.224
		c0-1.287,0.901-2.215,2.114-2.215c0.689,0,1.269,0.359,1.591,0.818l0.882-0.496C16.376,0.57,15.595,0,14.399,0
		c-1.774,0-3.217,1.25-3.217,3.171c0,1.921,1.443,3.18,3.217,3.18c1.066,0,1.921-0.441,2.528-1.112V2.942h-2.905V3.889z"/>
	<path d="M20.922,0c-1.838,0-3.135,1.342-3.135,3.171s1.296,3.171,3.135,3.171c1.838,0,3.135-1.342,3.135-3.171S22.76,0,20.922,0z
		 M20.922,5.387c-1.241,0-2.031-0.956-2.031-2.215c0-1.268,0.79-2.215,2.031-2.215c1.232,0,2.031,0.947,2.031,2.215
		C22.953,4.431,22.153,5.387,20.922,5.387z"/>
</g>
<g>
	<path d="M28.346,6.343V0.69h-2.004V0.212h4.541V0.69H28.88v5.653H28.346z"/>
	<path d="M31.582,4.118c0-1.287,0.91-2.326,2.142-2.326c1.351,0,2.096,1.075,2.096,2.353v0.129h-3.714
		c0.046,0.965,0.689,1.765,1.737,1.765c0.561,0,1.075-0.211,1.452-0.616l0.248,0.312c-0.441,0.46-1.002,0.717-1.737,0.717
		C32.51,6.453,31.582,5.488,31.582,4.118z M33.714,2.206c-1.048,0-1.572,0.919-1.609,1.691h3.226
		C35.323,3.144,34.827,2.206,33.714,2.206z"/>
	<path d="M36.554,5.755l0.285-0.359c0.285,0.359,0.809,0.653,1.434,0.653c0.745,0,1.186-0.386,1.186-0.901
		c0-1.213-2.804-0.533-2.804-2.123c0-0.68,0.579-1.232,1.581-1.232c0.763,0,1.268,0.294,1.59,0.653l-0.267,0.34
		c-0.258-0.349-0.735-0.588-1.324-0.588c-0.689,0-1.112,0.349-1.112,0.809c0,1.112,2.804,0.432,2.804,2.142
		c0,0.717-0.552,1.305-1.664,1.305C37.547,6.453,36.996,6.242,36.554,5.755z"/>
	<path d="M41.142,5.488V2.326h-0.735V1.903h0.735V0.69h0.487v1.213h0.901v0.423h-0.901v3.089c0,0.359,0.147,0.607,0.46,0.607
		c0.212,0,0.395-0.101,0.496-0.211l0.184,0.368c-0.174,0.166-0.386,0.276-0.754,0.276C41.426,6.453,41.142,6.095,41.142,5.488z"/>
	<path d="M46.464,6.343V3.337c0-0.855-0.432-1.112-1.075-1.112c-0.57,0-1.158,0.359-1.443,0.763v3.355h-0.478v-4.44h0.478v0.671
		c0.322-0.386,0.956-0.781,1.6-0.781c0.901,0,1.397,0.441,1.397,1.443v3.107H46.464z"/>
	<path d="M48.063,4.118c0-1.287,0.91-2.326,2.142-2.326c1.351,0,2.096,1.075,2.096,2.353v0.129h-3.714
		c0.046,0.965,0.689,1.765,1.737,1.765c0.561,0,1.075-0.211,1.452-0.616l0.248,0.312c-0.441,0.46-1.002,0.717-1.737,0.717
		C48.991,6.453,48.063,5.488,48.063,4.118z M50.195,2.206c-1.048,0-1.572,0.919-1.609,1.691h3.226
		C51.804,3.144,51.308,2.206,50.195,2.206z"/>
	<path d="M53.514,5.488V2.326h-0.735V1.903h0.735V0.69h0.487v1.213h0.901v0.423h-0.901v3.089c0,0.359,0.147,0.607,0.46,0.607
		c0.212,0,0.395-0.101,0.496-0.211l0.184,0.368c-0.175,0.166-0.386,0.276-0.754,0.276C53.798,6.453,53.514,6.095,53.514,5.488z"/>
</g>
</svg>
