<svg width="24" height="24" fill="none" xmlns="http://www.w3.org/2000/svg"><path fill-rule="evenodd" clip-rule="evenodd" d="M8.5 2a.5.5 0 0 0-.5.5v2a.5.5 0 0 0 1 0v-2a.5.5 0 0 0-.5-.5Zm2.333 0a.5.5 0 0 0-.5.5v2a.5.5 0 0 0 1 0v-2a.5.5 0 0 0-.5-.5Zm1.834.5a.5.5 0 0 1 1 0v2a.5.5 0 1 1-1 0v-2ZM15.5 2a.5.5 0 0 0-.5.5v2a.5.5 0 1 0 1 0v-2a.5.5 0 0 0-.5-.5ZM8 19.5a.5.5 0 0 1 1 0v2a.5.5 0 0 1-1 0v-2Zm2.833-.5a.5.5 0 0 0-.5.5v2a.5.5 0 0 0 1 0v-2a.5.5 0 0 0-.5-.5Zm1.834.5a.5.5 0 0 1 1 0v2a.5.5 0 1 1-1 0v-2ZM15.5 19a.5.5 0 0 0-.5.5v2a.5.5 0 1 0 1 0v-2a.5.5 0 0 0-.5-.5ZM2 8.5a.5.5 0 0 1 .5-.5h2a.5.5 0 0 1 0 1h-2a.5.5 0 0 1-.5-.5ZM19.5 8a.5.5 0 0 0 0 1h2a.5.5 0 0 0 0-1h-2ZM2 10.833a.5.5 0 0 1 .5-.5h2a.5.5 0 0 1 0 1h-2a.5.5 0 0 1-.5-.5Zm17.5-.5a.5.5 0 0 0 0 1h2a.5.5 0 1 0 0-1h-2ZM2 13.167a.5.5 0 0 1 .5-.5h2a.5.5 0 0 1 0 1h-2a.5.5 0 0 1-.5-.5Zm17.5-.5a.5.5 0 0 0 0 1h2a.5.5 0 1 0 0-1h-2ZM2 15.5a.5.5 0 0 1 .5-.5h2a.5.5 0 1 1 0 1h-2a.5.5 0 0 1-.5-.5Zm17.5-.5a.5.5 0 1 0 0 1h2a.5.5 0 0 0 0-1h-2Z" fill="#139900"/><path opacity=".75" d="M6 7a1 1 0 0 1 1-1h10a1 1 0 0 1 1 1v10a1 1 0 0 1-1 1H7a1 1 0 0 1-1-1V7Z" fill="#139900"/><path d="M7 7h10v10L7 7Z" fill="#fff" fill-opacity=".12"/></svg>