<svg width="24" height="24" fill="none" xmlns="http://www.w3.org/2000/svg"><path fill-rule="evenodd" clip-rule="evenodd" d="M20 11.954c0 1.95-3.663 3.596-8 3.596s-8-1.647-8-3.596V9.457C5.324 10.967 8.367 12 12 12s6.676-1.034 8-2.543v2.497Zm0 4.45C20 18.353 16.337 20 12 20s-8-1.647-8-3.596V13.86c1.324 1.51 4.367 2.544 8 2.544s6.676-1.034 8-2.543v2.543Z" fill="#FF5537"/><mask id="a" style="mask-type:alpha" maskUnits="userSpaceOnUse" x="4" y="9" width="16" height="11"><path fill-rule="evenodd" clip-rule="evenodd" d="M20 11.954c0 1.95-3.663 3.596-8 3.596s-8-1.647-8-3.596V9.457C5.324 10.967 8.367 12 12 12s6.676-1.034 8-2.543v2.497Zm0 4.45C20 18.353 16.337 20 12 20s-8-1.647-8-3.596V13.86c1.324 1.51 4.367 2.544 8 2.544s6.676-1.034 8-2.543v2.543Z" fill="#000"/></mask><g mask="url(#a)"><path fill="url(#b)" d="M4 9h16v11H4z"/></g><path opacity=".5" d="M12 11.193c4.337 0 8-1.647 8-3.597S16.337 4 12 4 4 5.647 4 7.596c0 1.95 3.663 3.597 8 3.597Z" fill="#FF5537"/><defs><linearGradient id="b" x1="20" y1="14" x2="4" y2="14" gradientUnits="userSpaceOnUse"><stop stop-color="#fff" stop-opacity=".4"/><stop offset="1" stop-color="#fff" stop-opacity="0"/></linearGradient></defs></svg>