<svg width="21" height="21" viewBox="0 0 21 21" fill="none" xmlns="http://www.w3.org/2000/svg">
<path d="M6.80845 7.959C7.80379 7.76511 8.66684 7.17677 9.24011 6.29425C9.81337 5.41173 10.0339 4.3487 9.85117 3.29236C9.66848 2.23601 9.11411 1.32007 8.28256 0.711664C8.16917 0.624749 8.04948 0.551207 7.92979 0.48435C7.17383 0.049777 6.31078 -0.0973091 5.45403 0.0631484C4.45869 0.257035 3.59565 0.845379 3.02238 1.7279C2.44912 2.61041 2.22863 3.67344 2.41132 4.72979C2.78929 6.90934 4.76108 8.35346 6.80845 7.959ZM4.06182 2.49007C4.4461 1.90173 5.01936 1.50727 5.68082 1.38024C6.34228 1.25321 7.01634 1.40698 7.56441 1.81481C8.11877 2.22264 8.49045 2.83104 8.61015 3.53304C8.72984 4.23504 8.58495 4.94373 8.20067 5.53208C7.81639 6.12042 7.24313 6.51488 6.58167 6.64191C5.9958 6.75557 5.41624 6.64191 4.93117 6.36111C4.28231 5.98671 3.79723 5.31813 3.65234 4.4891C3.53265 3.7871 3.67754 3.07841 4.06182 2.49007Z" fill="url(#paint_pool_funded1_linear)"/>
<path d="M18.167 13.4682C16.8567 11.7433 14.4754 11.4758 12.8501 12.8598C12.0627 13.5284 11.5713 14.4911 11.4642 15.5541C11.3571 16.6172 11.6469 17.6668 12.2768 18.5025C12.9068 19.3383 13.814 19.8597 14.8156 19.9734C14.9542 19.9868 15.0928 20.0001 15.2251 20.0001C16.0818 20.0001 16.9134 19.6926 17.5874 19.1109C19.219 17.7203 19.471 15.1931 18.167 13.4682ZM16.8 18.068C16.2771 18.5159 15.6156 18.7165 14.9479 18.6429C14.2801 18.5694 13.6754 18.2151 13.2533 17.6601C12.8312 17.1052 12.6359 16.4032 12.7115 15.6945C12.7808 14.9858 13.1147 14.344 13.6376 13.8961C14.1037 13.5016 14.6581 13.3077 15.2125 13.3077C15.9495 13.3077 16.6803 13.6487 17.178 14.3039C18.0536 15.4538 17.8835 17.1453 16.8 18.068Z" fill="url(#paint_pool_funded2_linear)"/>
<path d="M18.8221 2.61042C18.6016 2.32293 18.2047 2.27613 17.9338 2.51013L2.23516 15.9284C1.96428 16.1624 1.92018 16.5836 2.14067 16.8711C2.26666 17.0382 2.44935 17.1185 2.63204 17.1185C2.77063 17.1185 2.90922 17.0717 3.02892 16.9714L18.7276 3.5531C18.9985 3.3191 19.0363 2.8979 18.8221 2.61042Z" fill="url(#paint_pool_funded3_linear)"/>
<defs>
<linearGradient id="paint_pool_funded1_linear" x1="2.34863" y1="4.01195" x2="9.91386" y2="4.01195" gradientUnits="userSpaceOnUse">
<stop stop-color="#232526"/>
<stop offset="1" stop-color="#797D80"/>
</linearGradient>
<linearGradient id="paint_pool_funded2_linear" x1="11.4424" y1="15.9876" x2="19.0001" y2="15.9876" gradientUnits="userSpaceOnUse">
<stop stop-color="#232526"/>
<stop offset="1" stop-color="#797D80"/>
</linearGradient>
<linearGradient id="paint_pool_funded3_linear" x1="2" y1="9.73965" x2="18.9601" y2="9.73965" gradientUnits="userSpaceOnUse">
<stop stop-color="#232526"/>
<stop offset="1" stop-color="#797D80"/>
</linearGradient>
</defs>
</svg>
