<svg width="20" height="20" viewBox="0 0 20 20" fill="none" xmlns="http://www.w3.org/2000/svg">
<path d="M10 0C4.48604 0 0 4.48604 0 10C0 15.514 4.48604 20 10 20C15.514 20 20 15.514 20 10C20 4.48604 15.514 0 10 0ZM10 19.1667C4.94542 19.1667 0.833333 15.0546 0.833333 10C0.833333 4.94542 4.94542 0.833333 10 0.833333C15.0546 0.833333 19.1667 4.94542 19.1667 10C19.1667 15.0546 15.0546 19.1667 10 19.1667Z" fill="black"/>
<path d="M10 0C4.48604 0 0 4.48604 0 10C0 15.514 4.48604 20 10 20C15.514 20 20 15.514 20 10C20 4.48604 15.514 0 10 0ZM10 19.1667C4.94542 19.1667 0.833333 15.0546 0.833333 10C0.833333 4.94542 4.94542 0.833333 10 0.833333C15.0546 0.833333 19.1667 4.94542 19.1667 10C19.1667 15.0546 15.0546 19.1667 10 19.1667Z" fill="url(#paint_posting_schedule1_linear)"/>
<path d="M11.42 10.9666C11.6081 10.691 11.7188 10.3583 11.7188 9.99992C11.7188 9.19617 11.1633 8.52138 10.4167 8.33429V3.28117C10.4167 3.05117 10.23 2.8645 10 2.8645C9.77 2.8645 9.58333 3.05117 9.58333 3.28117V8.33429C8.83667 8.52138 8.28125 9.19617 8.28125 9.99992C8.28125 10.9476 9.05229 11.7187 10 11.7187C10.2862 11.7187 10.5558 11.6472 10.7935 11.523L14.1983 14.6308C14.2783 14.7037 14.3787 14.7395 14.4792 14.7395C14.5923 14.7395 14.705 14.6937 14.7873 14.6039C14.9423 14.4339 14.9304 14.1703 14.7604 14.0151L11.42 10.9666ZM9.11458 9.99992C9.11458 9.51179 9.51188 9.1145 10 9.1145C10.4883 9.1145 10.8854 9.51179 10.8854 9.99992C10.8854 10.4883 10.4883 10.8853 10 10.8853C9.51188 10.8853 9.11458 10.4883 9.11458 9.99992Z" fill="black"/>
<path d="M11.42 10.9666C11.6081 10.691 11.7188 10.3583 11.7188 9.99992C11.7188 9.19617 11.1633 8.52138 10.4167 8.33429V3.28117C10.4167 3.05117 10.23 2.8645 10 2.8645C9.77 2.8645 9.58333 3.05117 9.58333 3.28117V8.33429C8.83667 8.52138 8.28125 9.19617 8.28125 9.99992C8.28125 10.9476 9.05229 11.7187 10 11.7187C10.2862 11.7187 10.5558 11.6472 10.7935 11.523L14.1983 14.6308C14.2783 14.7037 14.3787 14.7395 14.4792 14.7395C14.5923 14.7395 14.705 14.6937 14.7873 14.6039C14.9423 14.4339 14.9304 14.1703 14.7604 14.0151L11.42 10.9666ZM9.11458 9.99992C9.11458 9.51179 9.51188 9.1145 10 9.1145C10.4883 9.1145 10.8854 9.51179 10.8854 9.99992C10.8854 10.4883 10.4883 10.8853 10 10.8853C9.51188 10.8853 9.11458 10.4883 9.11458 9.99992Z" fill="url(#paint_posting_schedule2_linear)"/>
<defs>
<linearGradient id="paint_posting_schedule1_linear" x1="0" y1="10" x2="20" y2="10" gradientUnits="userSpaceOnUse">
<stop stop-color="#FF512F"/>
<stop offset="1" stop-color="#F09819"/>
</linearGradient>
<linearGradient id="paint_posting_schedule2_linear" x1="8.28125" y1="8.802" x2="14.8962" y2="8.802" gradientUnits="userSpaceOnUse">
<stop stop-color="#FF512F"/>
<stop offset="1" stop-color="#F09819"/>
</linearGradient>
</defs>
</svg>
