<?xml version="1.0" encoding="utf-8"?>
<!-- Generator: Adobe Illustrator 22.1.0, SVG Export Plug-In . SVG Version: 6.00 Build 0)  -->
<svg version="1.1" id="Слой_1" xmlns="http://www.w3.org/2000/svg" xmlns:xlink="http://www.w3.org/1999/xlink" x="0px" y="0px"
	 viewBox="0 0 15 15" style="enable-background:new 0 0 15 15;" xml:space="preserve">
<title>Page 1@3x</title>
<desc>Created with Sketch.</desc>
<g id="Page-1_1_">
	<g id="address" transform="translate(-264.000000, -488.000000)">
		<path id="Page-1" d="M268.7,498.3h5.6v-5.6h-5.6V498.3z M267.8,499.3h7.5v-7.5h-7.5V499.3z M267.3,490.8h8.4
			c0.3,0,0.5,0.2,0.5,0.5v8.4c0,0.3-0.2,0.5-0.5,0.5h-8.4c-0.3,0-0.5-0.2-0.5-0.5v-8.4C266.8,491,267,490.8,267.3,490.8z M264.5,488
			h2.3c0.3,0,0.5,0.2,0.5,0.5s-0.2,0.5-0.5,0.5h-1.9v1.9c0,0.3-0.2,0.5-0.5,0.5s-0.5-0.2-0.5-0.5v-2.3
			C264,488.2,264.2,488,264.5,488z M279,488.5v2.3c0,0.3-0.2,0.5-0.5,0.5s-0.5-0.2-0.5-0.5v-1.9h-1.9c-0.3,0-0.5-0.2-0.5-0.5
			s0.2-0.5,0.5-0.5h2.3C278.8,488,279,488.2,279,488.5z M278.5,503h-2.3c-0.3,0-0.5-0.2-0.5-0.5c0-0.3,0.2-0.5,0.5-0.5h1.9v-1.9
			c0-0.3,0.2-0.5,0.5-0.5s0.5,0.2,0.5,0.5v2.3C279,502.8,278.8,503,278.5,503z M264,502.5v-2.3c0-0.3,0.2-0.5,0.5-0.5
			s0.5,0.2,0.5,0.5v1.9h1.9c0.3,0,0.5,0.2,0.5,0.5c0,0.3-0.2,0.5-0.5,0.5h-2.3C264.2,503,264,502.8,264,502.5z"/>
	</g>
</g>
</svg>
