<?xml version="1.0" encoding="UTF-8"?>
<svg width="26px" height="26px" viewBox="0 0 26 26" version="1.1" xmlns="http://www.w3.org/2000/svg" xmlns:xlink="http://www.w3.org/1999/xlink">
    <!-- Generator: Sketch 49.2 (51160) - http://www.bohemiancoding.com/sketch -->
    <title>Page 1</title>
    <desc>Created with Sketch.</desc>
    <defs></defs>
    <g id="Page-1" stroke="none" stroke-width="1" fill-rule="evenodd">
        <g id="main---search" transform="translate(-141.000000, -41.000000)" stroke-width="0.5">
            <g id="Page-1" transform="translate(142.000000, 42.000000)">
                <path d="M17.4507042,9.49013239 C17.4507042,13.8760479 13.8760563,17.4506958 9.49014085,17.4506958 C5.10422535,17.4506958 1.52957746,13.8760479 1.52957746,9.49013239 C1.52957746,5.1042169 5.10422535,1.52956901 9.49014085,1.52956901 C13.8760563,1.52956901 17.4507042,5.0957662 17.4507042,9.49013239 M23.7295775,22.6563296 L16.7070423,15.6337944 C18.1690141,13.9183014 18.971831,11.7380197 18.971831,9.49013239 C18.971831,4.25914648 14.7126761,-8.45070423e-06 9.49014085,-8.45070423e-06 C4.25915493,-8.45070423e-06 0,4.25914648 0,9.49013239 C0,14.7211183 4.25915493,18.9802732 9.49014085,18.9802732 C11.7380282,18.9802732 13.9098592,18.1774563 15.6253521,16.7154845 L22.6647887,23.7381042 C22.8169014,23.8901324 23.0028169,23.957738 23.1971831,23.957738 C23.3915493,23.957738 23.5859155,23.8816817 23.7295775,23.7381042 C23.8732394,23.5943577 23.9492958,23.4000761 23.9492958,23.1971746 C23.9577465,22.9943577 23.8732394,22.7999915 23.7295775,22.6563296" id="Fill-1"></path>
            </g>
        </g>
    </g>
</svg>