<svg width="16" height="16" fill="none" xmlns="http://www.w3.org/2000/svg"><path fill-rule="evenodd" clip-rule="evenodd" d="M11.814 9.71c.577-.948.91-2.062.91-3.252 0-3.46-3-6.458-6.46-6.458A6.263 6.263 0 0 0 0 6.265c0 3.46 2.999 6.458 6.458 6.458a6.227 6.227 0 0 0 3.154-.854l3.847 3.85a.965.965 0 0 0 1.364 0l.954-.956c.376-.376.24-.85-.136-1.226l-3.827-3.828Zm-9.91-3.523a4.282 4.282 0 0 1 4.282-4.284c2.366 0 4.474 2.107 4.474 4.475a4.284 4.284 0 0 1-4.283 4.283c-2.366-.001-4.473-2.11-4.473-4.474Z" fill="#666"/></svg>