<?xml version="1.0" encoding="utf-8"?>
<!-- Generator: Adobe Illustrator 22.1.0, SVG Export Plug-In . SVG Version: 6.00 Build 0)  -->
<svg version="1.1" id="Слой_1" xmlns="http://www.w3.org/2000/svg" xmlns:xlink="http://www.w3.org/1999/xlink" x="0px" y="0px"
	 width="24px" height="24px" viewBox="0 0 24 24" enable-background="new 0 0 24 24" xml:space="preserve">
<title>Page 1</title>
<desc>Created with Sketch.</desc>
<g id="Page-1_1_">
	<g id="main---search" transform="translate(-38.000000, -399.000000)">
		<g id="Page-1" transform="translate(38.000000, 399.000000)">
			<g id="Clip-2">
			</g>
			<path id="Fill-1_1_" d="M19.9,11c-0.6,0-1.1,0.3-1.4,0.9l-3,6c-0.1,0.2-0.3,0.2-0.4,0.1c-0.1,0-0.1-0.1-0.2-0.2
				L10.3,5.1c-0.3-0.8-1.2-1.3-2-0.9c-0.4,0-0.7,0.3-0.9,0.7l-3,6C4.3,11,4.2,11,4.1,11H0.6C0.3,11,0,11.3,0,11.7
				c0,0.3,0.3,0.6,0.6,0.6h3.5c0.6,0,1.1-0.3,1.4-0.9l3-6c0.1-0.2,0.3-0.2,0.4-0.1C9,5.3,9,5.4,9.1,5.5l4.6,12.8
				c0.2,0.6,0.8,1,1.4,1h0.1c0.6,0,1.1-0.3,1.4-0.9l3-6c0.1-0.1,0.2-0.2,0.3-0.2h3.5c0.3,0,0.6-0.3,0.6-0.6S23.7,11,23.4,11"/>
		</g>
	</g>
</g>
</svg>
