<svg id="Layer_1" enable-background="new 0 0 512.003 512.003" height="512" viewBox="0 0 512.003 512.003" width="512" xmlns="http://www.w3.org/2000/svg"><path d="m194.665 61.427c5.303 0 9.095-4.859 7.861-9.918-1.047-4.293-5.421-6.916-9.707-5.866-9.178 2.184-7.591 15.784 1.846 15.784z"/><path d="m347.314 81.627c0-27.512-50.81-41.906-101-41.906-8.961 0-17.844.451-26.401 1.341-4.395.457-7.587 4.39-7.13 8.784s4.385 7.598 8.784 7.13c27.166-2.825 62.072-1.176 87.768 8.192 16.224 5.914 21.979 12.563 21.979 16.459s-5.756 10.545-21.979 16.459c-34.527 12.588-91.405 12.628-126.041 0-16.224-5.914-21.979-12.563-21.979-16.459 0-2.662 2.482-5.874 6.99-9.043 3.615-2.541 4.485-7.531 1.944-11.146-2.542-3.615-7.533-4.484-11.146-1.944-11.396 8.012-13.789 16.458-13.789 22.133 0 55.634 202 55.838 202 0z"/><path d="m434.965 253.772c-2.655-3.533-7.672-4.243-11.201-1.592-3.533 2.653-4.245 7.669-1.592 11.201 5.278 7.027 7.955 14.322 7.955 21.683 0 25.994-33.106 49.037-79.566 59.564 24.304-12.3 47.128-32.344 47.128-59.564 0-53.243.332-51.673-.995-58.026-.904-4.324-5.142-7.095-9.468-6.194-4.324.904-7.098 5.143-6.194 9.468 8.146 38.927-58.583 71.94-134.718 71.94-39.561 0-76.536-8.806-101.841-22.905 97.509 28.384 224.154-7.151 224.154-71.783v-28.896c18.88-13.834 29.063-30.661 29.063-48.604v-48.437c0-74.189-163.181-107.052-256.411-59.178-29.883 15.346-46.34 36.361-46.34 59.178v28.911c-19.031 13.954-29.063 30.684-29.063 48.589v48.438c0 17.942 10.183 34.77 29.063 48.604 0 29.367-1.722 38.691 6.804 53.636-4.512 7.91-6.804 16.185-6.804 24.667v95.906c0 74.189 163.181 107.052 256.411 59.178 29.882-15.346 46.339-36.361 46.339-59.178v-36.67c24.956-12.333 48.438-32.577 48.438-60.205v-48.438c0-10.905-3.756-21.433-11.162-31.293zm-53.276 19.95v11.342c0 35.572-61.994 65.625-135.375 65.625-58.528 0-109.811-19.119-128.174-44.907-.216-.375-.46-.736-.739-1.077-7.498-11.162-6.462-18.375-6.462-30.979 54.56 58.958 215.578 59.37 270.75-.004zm0-143.658c0 23.5-27.827 39.353-25.543 37.817-24.823 16.701-65.222 27.808-109.832 27.808-73.381 0-135.375-30.053-135.375-65.625v-11.342c55.262 59.47 215.793 59.142 270.75 0zm-135.375-114.062c73.381 0 135.375 30.053 135.375 65.625s-61.994 65.625-135.375 65.625-135.375-30.053-135.375-65.625 61.994-65.625 135.375-65.625zm-151.342 115.499c1.948 64.085 127.957 98.336 224.123 70.346-25.305 14.099-62.281 22.905-101.843 22.905-93.907 0-166.267-48.837-122.28-93.251zm-13.095 76.063v-11.342c56.184 60.462 217.033 58.046 270.75.005v11.337c0 35.572-61.994 65.625-135.375 65.625s-135.375-30.053-135.375-65.625zm63.239 138.556c5.28 18.98 22.462 36.129 48.922 48.688-48.307-10.139-83.099-33.689-83.099-60.337 0-3.493.614-6.975 1.814-10.421 7.411 7.469 17.715 15.049 32.363 22.07zm101.198 149.882c-73.381 0-135.375-30.053-135.375-65.625v-10.373c34.581 37.214 106.473 47.655 157.686 43.668 4.405-.343 7.698-4.191 7.354-8.597-.342-4.405-4.188-7.695-8.597-7.354-81.018 6.306-156.443-25.307-156.443-64.813 0-1.359 0-8.998 0-11.342 35.302 37.99 110.024 48.832 165.387 42.952 33.084 2.13 67.981-1.373 98.565-11.521-8.144 11.823-23.309 22.573-43.874 30.743-4.105 1.631-6.112 6.282-4.48 10.389 1.64 4.127 6.302 6.104 10.389 4.48 19.094-7.586 34.324-17.482 44.764-28.765v10.532c-.001 35.573-61.995 65.626-135.376 65.626zm183.813-162.5c0 54.905-140.165 88.696-228.719 47.097-15.62-7.337-27.326-16.175-34.366-25.756 31.989 10.455 68.771 13.744 103.433 10.819 51.902 4.409 124.763-5.956 159.652-43.501z"/><path d="m303.355 442.272c-4.324.94-7.054 5.27-6.026 9.637 1.017 4.32 5.372 6.939 9.624 5.953 4.306-.993 6.99-5.289 5.996-9.594-.993-4.305-5.289-6.988-9.594-5.996z"/></svg>