<?xml version="1.0" encoding="utf-8"?>
<!-- Generator: Adobe Illustrator 22.1.0, SVG Export Plug-In . SVG Version: 6.00 Build 0)  -->
<svg version="1.1" id="Слой_1" xmlns="http://www.w3.org/2000/svg" xmlns:xlink="http://www.w3.org/1999/xlink" x="0px" y="0px"
	 width="24px" height="24px" viewBox="0 0 24 24" enable-background="new 0 0 24 24" xml:space="preserve">
<title>Page 1</title>
<desc>Created with Sketch.</desc>
<g id="Page-1_1_">
	<g id="main---search" transform="translate(-38.000000, -268.000000)">
		<g id="Page-1" transform="translate(38.000000, 268.000000)">
			<g id="Clip-2">
			</g>
			<path id="Fill-1" d="M17.4,13.2c0.2,0,0.3,0.1,0.3,0.3s-0.1,0.3-0.3,0.3c-0.2,0-0.3-0.1-0.3-0.3
				S17.2,13.2,17.4,13.2z M17.4,12.1c-0.8,0-1.4,0.6-1.4,1.4s0.6,1.4,1.4,1.4s1.4-0.6,1.4-1.4S18.2,12.1,17.4,12.1z M14.6,10.9h8.2
				V16h-8.2c-0.2,0-0.3-0.1-0.3-0.3v-4.6C14.3,11.1,14.4,10.9,14.6,10.9z M1.2,5.8C1.5,6,1.9,6.1,2.3,6.1c6.4,0,14.1,0,19.6,0
				c0.5,0,0.9,0.4,0.9,0.9v2.8h-8.2c-0.8,0-1.4,0.6-1.4,1.4v4.6c0,0.8,0.6,1.4,1.4,1.4h8.2V20c0,0.5-0.4,0.9-0.9,0.9H2
				c-0.5,0-0.9-0.4-0.9-0.9V5.8H1.2z M2.3,2.7h17.1V5H2.3C1.7,5,1.2,4.5,1.2,3.8S1.7,2.7,2.3,2.7z M2.3,1.5C1,1.5,0,2.5,0,3.8V20
				c0,1.1,0.9,2,2,2h20c1.1,0,2-0.9,2-2V7c0-1.1-0.9-2-2-2h-1.4V2.1c0-0.3-0.3-0.6-0.6-0.6C20,1.5,2.3,1.5,2.3,1.5z"/>
		</g>
	</g>
</g>
</svg>
