<svg width="24" height="24" fill="none" xmlns="http://www.w3.org/2000/svg"><rect opacity=".25" x="2" y="4" width="20" height="16" rx="3" fill="#FF23C1"/><path fill-rule="evenodd" clip-rule="evenodd" d="M11.035 6.626a.875.875 0 0 1 .82.684l1.314 5.916 1-3.003a.875.875 0 0 1 1.45-.342l1.243 1.244H19a.875.875 0 0 1 0 1.75h-2.5a.875.875 0 0 1-.619-.256l-.499-.5-1.552 4.658a.875.875 0 0 1-1.684-.087l-1.283-5.77-1.027 3.337a.875.875 0 0 1-1.455.362l-1.743-1.744H5a.875.875 0 1 1 0-1.75h2c.232 0 .455.092.619.256l.972.973 1.573-5.111a.875.875 0 0 1 .87-.617Z" fill="#FF23C1"/></svg>