<?xml version="1.0" encoding="UTF-8"?>
<svg width="24px" height="16px" viewBox="0 0 24 16" version="1.1" xmlns="http://www.w3.org/2000/svg" xmlns:xlink="http://www.w3.org/1999/xlink">
    <!-- Generator: Sketch 49.2 (51160) - http://www.bohemiancoding.com/sketch -->
    <title>Page 1</title>
    <desc>Created with Sketch.</desc>
    <defs>
        <polygon id="path-1" points="0 9.47368421e-05 23.9684211 9.47368421e-05 23.9684211 15.3234632 0 15.3234632"></polygon>
    </defs>
    <g id="Page-1" stroke="none" stroke-width="1" fill="none" fill-rule="evenodd">
        <g id="main---search" transform="translate(-38.000000, -399.000000)">
            <g id="Page-1" transform="translate(38.000000, 399.000000)">
                <mask id="mask-2" fill="white">
                    <use xlink:href="#path-1"></use>
                </mask>
                <g id="Clip-2"></g>
                <path d="M19.8947368,7.01823158 C19.2947368,7.01823158 18.7578947,7.3656 18.4736842,7.87086316 L15.4736842,13.8708632 C15.3789474,14.0287579 15.1894737,14.0916 15.0631579,13.9971789 C15,13.9656 14.9368421,13.9024421 14.9052632,13.8077053 L10.2947368,1.04981053 C10.0105263,0.228757895 9.09473684,-0.213347368 8.27368421,0.102442105 C7.89473684,0.228757895 7.57894737,0.512968421 7.38947368,0.891915789 L4.35789474,6.89191579 C4.32631579,6.95507368 4.23157895,7.01823158 4.10526316,7.01823158 L0.631578947,7.01823158 C0.284210526,7.01823158 0,7.30244211 0,7.64981053 C0,7.99717895 0.284210526,8.28138947 0.631578947,8.28138947 L4.10526316,8.28138947 C4.70526316,8.28138947 5.24210526,7.93402105 5.52631579,7.42875789 L8.52631579,1.42875789 C8.62105263,1.27086316 8.81052632,1.20770526 8.93684211,1.30244211 C9,1.33402105 9.06315789,1.39717895 9.09473684,1.49191579 L13.6736842,14.2813895 C13.8947368,14.8810737 14.4315789,15.2919158 15.0631579,15.3234947 L15.1578947,15.3234947 C15.7578947,15.3234947 16.2947368,14.9761263 16.5473684,14.4708632 L19.5789474,8.47086316 C19.6421053,8.37612632 19.7368421,8.31296842 19.8631579,8.31296842 L23.3368421,8.31296842 C23.6842105,8.31296842 23.9684211,8.02875789 23.9684211,7.68138947 C23.9684211,7.33402105 23.6842105,7.04981053 23.3368421,7.04981053 L19.8947368,7.04981053 L19.8947368,7.01823158 Z" id="Fill-1" fill="#727784" mask="url(#mask-2)"></path>
            </g>
        </g>
    </g>
</svg>