<?xml version="1.0" encoding="UTF-8"?>
<svg width="24px" height="21px" viewBox="0 0 24 21" version="1.1" xmlns="http://www.w3.org/2000/svg" xmlns:xlink="http://www.w3.org/1999/xlink">
    <!-- Generator: Sketch 49.2 (51160) - http://www.bohemiancoding.com/sketch -->
    <title>Page 1</title>
    <desc>Created with Sketch.</desc>
    <defs>
        <polygon id="path-1" points="0 0 24 0 24 20.5714 0 20.5714"></polygon>
    </defs>
    <g id="Page-1" stroke="none" stroke-width="1" fill="none" fill-rule="evenodd">
        <g id="main---search" transform="translate(-38.000000, -268.000000)">
            <g id="Page-1" transform="translate(38.000000, 268.000000)">
                <mask id="mask-2" fill="white">
                    <use xlink:href="#path-1"></use>
                </mask>
                <g id="Clip-2"></g>
                <path d="M17.4285714,11.7054 C17.5931429,11.7054 17.7142857,11.8265429 17.7142857,11.9911143 C17.7142857,12.1556857 17.5931429,12.2768286 17.4285714,12.2768286 C17.264,12.2768286 17.1428571,12.1556857 17.1428571,11.9911143 C17.1428571,11.8265429 17.264,11.7054 17.4285714,11.7054 Z M17.4285714,10.5625429 C16.6465714,10.5625429 16,11.2088286 16,11.9911143 C16,12.7734 16.6465714,13.4196857 17.4285714,13.4196857 C18.2105714,13.4196857 18.8571429,12.7734 18.8571429,11.9911143 C18.8571429,11.2088286 18.2105714,10.5625429 17.4285714,10.5625429 Z M14.5714286,9.42854286 L22.8571429,9.42854286 L22.8571429,14.5714 L14.5714286,14.5714 C14.4031429,14.5714 14.2857143,14.4539714 14.2857143,14.2856857 L14.2857143,9.71425714 C14.2857143,9.54597143 14.4031429,9.42854286 14.5714286,9.42854286 Z M1.14285714,4.25911429 C1.47971429,4.45511429 1.87,4.5714 2.28571429,4.5714 C8.72114286,4.56568571 16.4688571,4.5714 22,4.5714 C22.4845714,4.5714 22.8571429,4.94368571 22.8571429,5.42854286 L22.8571429,8.28568571 L14.5714286,8.28568571 C13.79,8.28568571 13.1428571,8.93282857 13.1428571,9.71425714 L13.1428571,14.2856857 C13.1428571,15.0674 13.79,15.7142571 14.5714286,15.7142571 L22.8571429,15.7142571 L22.8571429,18.5714 C22.8571429,19.0562571 22.4845714,19.4285429 22,19.4285429 L2,19.4285429 C1.51514286,19.4285429 1.14285714,19.0562571 1.14285714,18.5714 L1.14285714,4.25911429 Z M2.28571429,1.14282857 L19.4285714,1.14282857 L19.4285714,3.42854286 L2.28571429,3.42854286 C1.64285714,3.42854286 1.14285714,2.92882857 1.14285714,2.28568571 C1.14285714,1.64254286 1.64285714,1.14282857 2.28571429,1.14282857 Z M2.28571429,-2.85714286e-05 C1.02942857,-2.85714286e-05 0,1.0294 0,2.28568571 L0,18.5714 C0,19.6694 0.902,20.5714 2,20.5714 L22,20.5714 C23.0982857,20.5714 24,19.6694 24,18.5714 L24,5.42854286 C24,4.33054286 23.0982857,3.42854286 22,3.42854286 L20.5714286,3.42854286 L20.5714286,0.5714 C20.5714286,0.272257143 20.2991429,-2.85714286e-05 20,-2.85714286e-05 L2.28571429,-2.85714286e-05 Z" id="Fill-1" fill="#828795" mask="url(#mask-2)"></path>
            </g>
        </g>
    </g>
</svg>