<svg width="24" height="24" fill="none" xmlns="http://www.w3.org/2000/svg"><rect opacity=".25" x="3" y="3" width="18" height="18" rx="4" fill="#0078FF"/><path d="m9.5 12.5-4.5 6h13.5V7l-5 7.5-4-2Z" fill="url(#a)"/><path fill-rule="evenodd" clip-rule="evenodd" d="M17.97 6.118a1 1 0 0 1 .412 1.353l-4 7.5a1 1 0 0 1-1.33.424l-3.21-1.606-2.51 3.766a1 1 0 0 1-1.664-1.11l3-4.5a1 1 0 0 1 1.28-.34l3.128 1.565 3.542-6.64a1 1 0 0 1 1.353-.412Z" fill="#0078FF"/><defs><linearGradient id="a" x1="12" y1="7" x2="14" y2="17" gradientUnits="userSpaceOnUse"><stop stop-color="#0078FF"/><stop offset="1" stop-color="#0078FF" stop-opacity="0"/></linearGradient></defs></svg>