<?xml version="1.0" encoding="UTF-8"?>
<svg width="24px" height="24px" viewBox="0 0 24 24" version="1.1" xmlns="http://www.w3.org/2000/svg" xmlns:xlink="http://www.w3.org/1999/xlink">
    <!-- Generator: Sketch 49.2 (51160) - http://www.bohemiancoding.com/sketch -->
    <title>Page 1</title>
    <desc>Created with Sketch.</desc>
    <defs>
        <polygon id="path-1" points="0 2.66666667e-05 24 2.66666667e-05 24 24.0000267 0 24.0000267"></polygon>
    </defs>
    <g id="Page-1" stroke="none" stroke-width="1" fill-rule="evenodd">
        <g id="main---search" transform="translate(-38.000000, -334.000000)">
            <g id="Page-1" transform="translate(38.000000, 334.000000)">
                <mask id="mask-2" fill="white">
                    <use xlink:href="#path-1"></use>
                </mask>
                <g id="Clip-2"></g>
                <path d="M10.6666667,2.71672 L10.6666667,12.8001867 C10.6666667,13.0945867 10.9056,13.33352 11.2,13.33352 L21.2749333,13.33352 C20.9922667,18.68152 16.6197333,22.93352 11.2,22.93352 C5.59733333,22.93352 1.06666667,18.4028533 1.06666667,12.8001867 C1.06666667,7.38018667 5.31813333,2.99938667 10.6666667,2.71672 Z M11.2,1.60018667 C5.0208,1.60018667 0,6.62072 0,12.8001867 C0,18.97912 5.0208,24.0001867 11.2,24.0001867 C17.3792,24.0001867 22.4,18.97912 22.4,12.8001867 C22.4,12.50552 22.1610667,12.2668533 21.8666667,12.2668533 L11.7333333,12.2668533 L11.7333333,2.13325333 C11.7333333,1.83885333 11.4944,1.60018667 11.2,1.60018667 Z M13.3333333,1.11672 C18.5021333,1.38952 22.6029333,5.49778667 22.8749333,10.6665867 L13.3333333,10.6665867 L13.3333333,1.11672 Z M12.8,-8e-05 C12.5056,-8e-05 12.2666667,0.238853333 12.2666667,0.533253333 L12.2666667,11.19992 C12.2666667,11.4945867 12.5056,11.7332533 12.8,11.73352 L23.4666667,11.73352 C23.7610667,11.7332533 24,11.4945867 24,11.19992 C24,5.02072 18.9792,-8e-05 12.8,-8e-05 Z" id="Fill-1" mask="url(#mask-2)"></path>
            </g>
        </g>
    </g>
</svg>