<?xml version="1.0" encoding="utf-8"?>
<!-- Generator: Adobe Illustrator 22.1.0, SVG Export Plug-In . SVG Version: 6.00 Build 0)  -->
<svg version="1.1" id="Слой_1" xmlns="http://www.w3.org/2000/svg" xmlns:xlink="http://www.w3.org/1999/xlink" x="0px" y="0px"
	 width="22px" height="22px" viewBox="0 0 22 22" enable-background="new 0 0 22 22" xml:space="preserve">
<title>Page 1</title>
<desc>Created with Sketch.</desc>
<g id="Page-1_1_">
	<g id="main---search" transform="translate(-39.000000, -146.000000)">
		<g id="Page-1" transform="translate(39.000000, 146.000000)">
			<path id="Fill-1" d="M10.8,11.3c-0.6,0.1-1.2-0.1-1.7-0.4C6.4,9.5,3.7,8.1,1,6.7C0.7,6.6,0.5,6.5,0.4,6.3c-0.5-0.4-0.5-0.9,0-1.3
				c0.2-0.2,0.4-0.3,0.7-0.4C3.7,3.3,6.4,1.9,9,0.5c1.2-0.6,2.5-0.6,3.7,0c2.6,1.4,5.3,2.7,7.9,4.1c0.2,0.1,0.3,0.2,0.5,0.3
				c0.7,0.5,0.7,1.1,0,1.6c-0.2,0.1-0.3,0.2-0.5,0.3c-2.7,1.4-5.3,2.8-8,4.2C12.1,11.2,11.5,11.4,10.8,11.3"/>
			<path id="Fill-3" d="M10.8,16.6c-0.6,0.1-1.2-0.1-1.8-0.4c-2.8-1.4-5.5-2.9-8.3-4.3c-0.4-0.2-0.8-0.5-0.7-1.1
				c0.1-0.4,0.4-0.7,0.8-0.7c0.3-0.1,0.7,0.1,0.9,0.3c2.5,1.3,5.1,2.6,7.6,4c1.1,0.6,2.1,0.6,3.2,0c2.5-1.3,5-2.6,7.6-3.9
				c0.2-0.1,0.5-0.3,0.7-0.3c0.4-0.1,0.8,0.1,1,0.5s0.1,0.8-0.2,1.1c-0.2,0.2-0.4,0.3-0.6,0.4c-2.6,1.3-5.1,2.7-7.7,4
				C12.6,16.4,11.8,16.7,10.8,16.6"/>
			<path id="Fill-5" d="M11.1,22c-0.7,0.1-1.4-0.2-2.1-0.5c-2.7-1.4-5.3-2.7-8-4.1c-0.2-0.1-0.5-0.3-0.7-0.4
				c-0.3-0.3-0.4-0.7-0.2-1.1s0.6-0.6,1-0.4c0.2,0.1,0.4,0.2,0.7,0.3c2.5,1.3,5.1,2.6,7.6,4c1.1,0.6,2,0.6,3.1,0
				c2.6-1.4,5.2-2.7,7.8-4.1c0.4-0.2,0.7-0.4,1.1-0.1c0.6,0.3,0.6,1.1,0.1,1.5c-0.2,0.2-0.4,0.3-0.6,0.4c-2.6,1.3-5.2,2.7-7.9,4
				C12.5,21.8,11.8,22,11.1,22"/>
		</g>
	</g>
</g>
</svg>
