<?xml version="1.0" encoding="UTF-8"?>
<svg width="22px" height="22px" viewBox="0 0 22 22" version="1.1" xmlns="http://www.w3.org/2000/svg" xmlns:xlink="http://www.w3.org/1999/xlink">
    <!-- Generator: Sketch 49.2 (51160) - http://www.bohemiancoding.com/sketch -->
    <title>Page 1</title>
    <desc>Created with Sketch.</desc>
    <defs></defs>
    <g id="Page-1" stroke="none" stroke-width="1" fill-rule="evenodd">
        <g id="main---search" transform="translate(-39.000000, -146.000000)">
            <g id="Page-1" transform="translate(39.000000, 146.000000)">
                <path d="M10.8411031,11.2894683 C10.1947918,11.353071 9.64081067,11.1940644 9.08682953,10.9078525 C6.37847729,9.50859445 3.67012505,8.1093364 0.930996083,6.67827704 C0.715558973,6.58287308 0.500121863,6.4556678 0.346238213,6.2966612 C-0.115412738,5.88324406 -0.115412738,5.40622427 0.346238213,5.02460844 C0.530898593,4.86560184 0.777112433,4.73839656 1.02332627,4.61119129 C3.67012505,3.24373456 6.34770056,1.87627783 8.99449934,0.477019788 C10.2255685,-0.159006596 11.4566377,-0.159006596 12.6877069,0.477019788 C15.3345057,1.84447651 17.9813045,3.21193324 20.65888,4.57938997 C20.8127637,4.67479392 20.997424,4.73839656 21.1513077,4.86560184 C21.8899492,5.34262163 21.8591725,5.94684669 21.120531,6.4556678 C20.9666473,6.58287308 20.8127637,6.64647572 20.65888,6.74187967 C17.9813045,8.1093364 15.303729,9.50859445 12.6261535,10.9078525 C12.0721723,11.1940644 11.4874145,11.3848723 10.8411031,11.2894683" id="Fill-1"></path>
                <path d="M10.8339721,16.6448042 C10.2128133,16.7088368 9.62271241,16.5167389 9.03261156,16.2285921 C6.237397,14.7878581 3.47324037,13.347124 0.678025811,11.9063899 C0.243214656,11.6822757 -0.0984226791,11.3941289 0.0258090793,10.8178353 C0.0879249585,10.4016232 0.398504354,10.1454927 0.802257569,10.0814601 C1.1438949,10.0174275 1.4544743,10.2095253 1.73399576,10.3696069 C4.2807468,11.6822757 6.85855579,12.9949445 9.3742489,14.3396297 C10.4923347,14.9159233 11.4861888,14.9479396 12.6042746,14.3396297 C15.1199677,12.9949445 17.6667188,11.714292 20.1824119,10.4016232 C20.3998175,10.273558 20.648281,10.1454927 20.8967445,10.0814601 C21.3315556,9.98541115 21.673193,10.177509 21.8905986,10.5937211 C22.1080041,10.9779168 21.9837724,11.3621126 21.673193,11.6502594 C21.4868453,11.810341 21.2694398,11.9384062 21.0830921,12.0344552 C18.5052831,13.3791403 15.9585321,14.7238254 13.3807231,16.0364942 C12.6042746,16.4523861 11.7657102,16.6768205 10.8339721,16.6448042" id="Fill-3"></path>
                <path d="M11.0512671,21.9891002 C10.3044424,22.0531168 9.61985313,21.8290586 8.93526384,21.476967 C6.25914204,20.1006092 3.61413794,18.7562596 0.938016148,17.3799018 C0.720192281,17.2518685 0.471250719,17.1238352 0.284544547,16.9637936 C-0.0266324056,16.6757187 -0.0888677961,16.2916188 0.128956071,15.907519 C0.377897633,15.5234191 0.689074586,15.2993608 1.15584002,15.4594025 C1.37366388,15.5234191 1.59148775,15.6514524 1.80931162,15.7474774 C4.36096263,17.0598186 6.94373134,18.3721598 9.46426466,19.7165093 C10.5222663,20.2926591 11.5180325,20.2926591 12.5760342,19.7165093 C15.1899206,18.3401515 17.803807,16.9958019 20.4176934,15.6514524 C20.7911057,15.4594025 21.1334004,15.2673525 21.5379304,15.5234191 C22.0980489,15.8435023 22.1602843,16.6437104 21.6624012,17.0598186 C21.475695,17.2198602 21.2578712,17.3158851 21.0400473,17.4119101 C18.4261609,18.7562596 15.7811568,20.1006092 13.1672704,21.4449587 C12.5449165,21.7970503 11.8292095,22.0531168 11.0512671,21.9891002" id="Fill-5"></path>
            </g>
        </g>
    </g>
</svg>