<svg width="24" height="24" fill="none" xmlns="http://www.w3.org/2000/svg"><path fill="#F90" d="M10 18h4v2h-4z"/><path opacity=".8" d="M7 21a1 1 0 0 1 1-1h8a1 1 0 1 1 0 2H8a1 1 0 0 1-1-1Z" fill="#F90"/><path opacity=".8" fill-rule="evenodd" clip-rule="evenodd" d="M4 4a2 2 0 0 0-2 2v10a2 2 0 0 0 2 2h16a2 2 0 0 0 2-2V6a2 2 0 0 0-2-2H4Zm1 2a1 1 0 0 0-1 1v8a1 1 0 0 0 1 1h14a1 1 0 0 0 1-1V7a1 1 0 0 0-1-1H5Z" fill="#F90"/><path opacity=".5" fill-rule="evenodd" clip-rule="evenodd" d="M5.5 7a.5.5 0 0 0-.5.5v7a.5.5 0 0 0 .5.5h13a.5.5 0 0 0 .5-.5v-7a.5.5 0 0 0-.5-.5h-13ZM14 8.5a.5.5 0 0 1 .5-.5h2.833c.369 0 .667.298.667.667V10.5a.5.5 0 0 1-1 0V9h-2.5a.5.5 0 0 1-.5-.5Z" fill="#F90"/></svg>