<svg width="24" height="24" fill="none" xmlns="http://www.w3.org/2000/svg"><path fill-rule="evenodd" clip-rule="evenodd" d="M20.999 0h.013a.136.136 0 0 1 .124.124c.3 1.527 1.13 2.472 2.739 2.74l.021.004a.136.136 0 0 1 .103.111l.001.013v.017l-.003.02-.006.02a.136.136 0 0 1-.115.087l-.081.015c-1.557.285-2.365 1.225-2.66 2.727l-.003.02a.136.136 0 0 1-.126.102h-.014l-.026-.004a.136.136 0 0 1-.102-.12c-.3-1.527-1.13-2.472-2.739-2.74l-.02-.003A.136.136 0 0 1 18 3.02L18 3.008v-.017l.003-.02.006-.02a.137.137 0 0 1 .115-.087l.081-.014c1.557-.286 2.365-1.225 2.66-2.728a.136.136 0 0 1 .13-.121h.004Zm-18 2h.01a.09.09 0 0 1 .082.082c.2 1.018.753 1.649 1.826 1.828l.014.002a.09.09 0 0 1 .068.074L5 3.995v.011l-.002.013-.004.014a.09.09 0 0 1-.077.058l-.054.01c-1.038.19-1.576.816-1.772 1.818l-.003.013A.09.09 0 0 1 3.004 6h-.01l-.016-.003a.09.09 0 0 1-.069-.08C2.71 4.9 2.156 4.27 1.083 4.092l-.013-.002A.09.09 0 0 1 1 4.014v-.02l.002-.014.004-.012a.09.09 0 0 1 .077-.058l.054-.01c1.038-.19 1.576-.817 1.772-1.818A.09.09 0 0 1 2.996 2H3Zm1.5 18h-.002a.068.068 0 0 0-.065.061c-.147.751-.551 1.221-1.33 1.364l-.04.007a.068.068 0 0 0-.058.044l-.002.01-.002.01v.014c.005.028.026.05.052.056l.01.002c.805.134 1.22.607 1.37 1.37.003.03.024.053.051.06l.013.002h.007a.068.068 0 0 0 .063-.051l.002-.01c.147-.751.551-1.22 1.33-1.364l.04-.007a.068.068 0 0 0 .058-.043l.003-.01.001-.01v-.015l-.001-.003-.001-.004a.068.068 0 0 0-.05-.05h-.01c-.805-.135-1.22-.608-1.37-1.371A.068.068 0 0 0 4.506 20H4.5Zm14.751-8a7.25 7.25 0 1 1-14.5 0 7.25 7.25 0 0 1 14.5 0ZM21 12a9 9 0 1 1-18 0 9 9 0 0 1 18 0Zm-9 6a6 6 0 1 0 0-12 6 6 0 0 0 0 12Zm-.471-4.235H14.4V15H9.6v-1.123l1.889-1.937-1.88-1.814V9H14.4v1.235h-2.81l1.742 1.69-1.803 1.84Z" fill="#F90"/></svg>