<?xml version="1.0" encoding="utf-8"?>
<!-- Svg Vector Icons : http://www.onlinewebfonts.com/icon -->
<!DOCTYPE svg PUBLIC "-//W3C//DTD SVG 1.1//EN" "http://www.w3.org/Graphics/SVG/1.1/DTD/svg11.dtd">
<svg version="1.1" xmlns="http://www.w3.org/2000/svg" xmlns:xlink="http://www.w3.org/1999/xlink" x="0px" y="0px" viewBox="0 0 1000 1000" enable-background="new 0 0 1000 1000" xml:space="preserve">
<metadata> Svg Vector Icons : http://www.onlinewebfonts.com/icon </metadata>
<g><g transform="translate(0.000000,511.000000) scale(0.100000,-0.100000)"><path d="M4972.1,4988.3c-21.7-11.9-114.7-83-207.6-154.2c-620.9-488.4-1338.7-919.5-1769.8-1063.8c-379.7-126.6-870-197.7-1479.1-217.5l-433.1-13.8l-47.5-55.4l-47.5-57.3l4-2325.4l5.9-2327.4l65.2-168.1c166.1-433,547.7-955.1,1141-1560.2c1119.2-1140.9,2309.6-1898.3,2877.1-1831c597.2,71.2,1615.5,769.2,2631.9,1801.4C8446.3-2235,8924.9-1560.7,8996-1177.1c13.8,71.2,17.8,899.7,15.8,2368.9c-5.9,2242.4-5.9,2258.2-45.5,2297.7c-37.6,35.6-71.2,41.5-385.6,47.5c-678.2,15.8-1267.5,150.3-1880.5,427.1c-531.9,239.3-1046,561.6-1421.8,889.8C5092.7,5016,5051.2,5033.8,4972.1,4988.3z M5205.4,4505.9c454.8-363.9,1150.8-759.3,1696.6-963c512.1-191.8,1123.2-310.4,1595.8-310.4h201.7l-4-2218.6l-5.9-2220.6l-85-168.1c-340.1-678.2-1538.4-1910.1-2546.9-2622c-249.2-176-725.7-425.1-881.9-460.7c-215.5-49.4-393.5-13.8-721.8,146.3c-1091.5,531.9-2819.7,2208.7-3102.5,3009.6l-47.5,134.5v2196.9v2196.9l302.5,13.8c579.4,27.7,1109.3,112.7,1489,239.3c442.9,146.3,1158.7,565.5,1738.1,1016.4c98.9,75.1,185.9,138.4,193.8,138.4C5037.3,4636.4,5116.4,4577,5205.4,4505.9z"/><path d="M3071.8,2020.3c-37.6-33.6-53.4-65.3-53.4-110.7c0-59.3,83-148.3,897.7-963l897.7-897.7L3930-835c-486.4-488.4-891.8-907.6-903.7-935.3c-21.8-61.3,15.8-166.1,67.2-185.9c108.8-41.5,104.8-45.5,1028.2,877.9c488.4,490.4,899.7,889.8,909.6,889.8c11.9,0,419.2-399.4,905.6-889.8c806.8-810.7,891.8-889.8,951.1-889.8c89,0,150.3,61.3,150.3,154.2c0,69.2-39.5,110.7-893.8,967L5248.9,48.8l895.7,895.8c846.3,846.3,893.8,897.7,893.8,965c0,91-57.4,144.3-150.3,144.3c-65.3,0-124.6-55.4-963-893.8l-893.8-893.8l-870,872c-478.5,478.5-893.8,883.9-923.4,899.7C3164.8,2075.7,3133.1,2073.7,3071.8,2020.3z"/></g></g>
</svg>