<svg width="24" height="24" fill="none" xmlns="http://www.w3.org/2000/svg"><path opacity=".6" fill-rule="evenodd" clip-rule="evenodd" d="M7 3a5 5 0 0 0-5 5v8a5 5 0 0 0 5 5h10a5 5 0 0 0 5-5v-.059a2.552 2.552 0 0 1-.546.059H15a4 4 0 0 1 0-8h6.454c.188 0 .37.02.546.059V8a5 5 0 0 0-5-5H7ZM5 7a1 1 0 0 0 1 1h3a1 1 0 0 0 0-2H6a1 1 0 0 0-1 1Z" fill="#139900"/><path fill-rule="evenodd" clip-rule="evenodd" d="M13 12a2 2 0 0 1 2-2h6.454c.302 0 .546.244.546.546v2.909a.545.545 0 0 1-.546.545H15a2 2 0 0 1-2-2Zm2 1a1 1 0 1 0 0-2 1 1 0 0 0 0 2Z" fill="#139900"/></svg>