<svg width="28" height="24" viewBox="0 0 28 24" fill="none" xmlns="http://www.w3.org/2000/svg">
<mask id="path-1-inside-1" fill="white">
<path d="M20.5061 6.72397C20.4949 6.7076 20.4827 6.69187 20.468 6.67722C20.4173 6.62637 20.3665 6.57552 20.3157 6.52467C20.3008 6.50959 20.2845 6.49687 20.2675 6.48545C16.6589 3.13389 11.1511 3.17052 7.611 6.60396C4.07008 10.0378 4.22741 15.7528 7.49672 19.2794C7.50726 19.2946 7.51867 19.3095 7.53201 19.3229C7.58281 19.3737 7.6336 19.4248 7.6844 19.4754C7.69839 19.4892 7.71388 19.5015 7.73002 19.5125C11.3387 22.866 16.8481 22.8302 20.3891 19.3963C23.9289 15.9631 23.7726 10.2505 20.5061 6.72397ZM8.12217 7.31263C11.1422 4.08668 16.2225 4.10629 19.4655 6.9194C15.6188 10.77 11.7722 14.6208 7.92567 18.4718C5.11652 15.2368 5.17312 10.4627 8.12217 7.31263ZM14 21.1877C11.9358 21.1461 10.0754 20.4293 8.53411 19.0816C12.3813 15.2301 16.2285 11.3787 20.0755 7.52723C22.2979 10.0839 22.7981 13.6548 21.2853 16.7198C19.924 19.4776 17.0246 21.1354 14 21.1877Z"/>
</mask>
<path d="M20.5061 6.72397L19.6805 7.28823L19.7223 7.34928L19.7725 7.40352L20.5061 6.72397ZM20.468 6.67722L21.1755 5.9705L20.468 6.67722ZM20.3157 6.52467L19.6031 7.2263L19.6082 7.23139L20.3157 6.52467ZM20.2675 6.48545L19.5869 7.21817L19.6446 7.27172L19.7099 7.3156L20.2675 6.48545ZM7.611 6.60396L8.30718 7.32184L8.30722 7.3218L7.611 6.60396ZM7.49672 19.2794L8.32004 18.7118L8.2791 18.6524L8.23006 18.5995L7.49672 19.2794ZM7.53201 19.3229L8.23951 18.6162L7.53201 19.3229ZM7.6844 19.4754L6.97839 20.1837L6.9824 20.1876L7.6844 19.4754ZM7.73002 19.5125L8.41075 18.7799L8.35532 18.7284L8.29276 18.6858L7.73002 19.5125ZM20.3891 19.3963L21.0852 20.1142L21.0853 20.1142L20.3891 19.3963ZM8.12217 7.31263L7.39215 6.6292L7.39215 6.6292L8.12217 7.31263ZM19.4655 6.9194L20.173 7.62616L20.9313 6.86707L20.1208 6.164L19.4655 6.9194ZM7.92567 18.4718L7.17061 19.1274L7.8745 19.938L8.63318 19.1785L7.92567 18.4718ZM14 21.1877L13.9799 22.1875L13.9986 22.1879L14.0173 22.1876L14 21.1877ZM8.53411 19.0816L7.82662 18.3748L7.0714 19.1309L7.87585 19.8343L8.53411 19.0816ZM20.0755 7.52723L20.8302 6.87118L20.1262 6.06136L19.368 6.82053L20.0755 7.52723ZM21.2853 16.7198L22.182 17.1625L22.182 17.1624L21.2853 16.7198ZM21.3317 6.15972C21.2969 6.10872 21.246 6.04101 21.1755 5.9705L19.7605 7.38394C19.7194 7.34274 19.693 7.30648 19.6805 7.28823L21.3317 6.15972ZM21.1755 5.9705C21.1376 5.93251 21.1944 5.98942 21.1565 5.95143C21.1527 5.94759 21.1556 5.95052 21.1517 5.94667C21.1395 5.93442 21.1616 5.95653 21.1494 5.94428C21.1464 5.94135 21.1499 5.94483 21.147 5.9419C21.1461 5.94104 21.1431 5.93799 21.1422 5.93713C21.125 5.9199 21.1547 5.9496 21.1374 5.93237C21.0911 5.88593 21.1457 5.94067 21.0994 5.89423C21.06 5.85487 21.0625 5.85731 21.0232 5.81795L19.6082 7.23139C19.6238 7.24708 19.6115 7.23476 19.6272 7.25045C19.6343 7.2576 19.6296 7.25285 19.6367 7.25999C19.6412 7.26442 19.6371 7.26033 19.6415 7.26476C19.6442 7.2675 19.64 7.2632 19.6427 7.26595C19.643 7.26629 19.6435 7.2668 19.6439 7.26714C19.6444 7.26766 19.6446 7.26781 19.6451 7.26833C19.6453 7.26856 19.6454 7.26869 19.6457 7.26893C19.6458 7.26903 19.6459 7.26913 19.646 7.26923C19.6461 7.26932 19.6462 7.26942 19.6463 7.26952C19.6531 7.27632 19.6442 7.26749 19.651 7.27429C19.6515 7.27476 19.6517 7.27501 19.6522 7.27548C19.6527 7.27598 19.6529 7.27618 19.6534 7.27667C19.6595 7.28276 19.6497 7.27297 19.6558 7.27906C19.7073 7.33062 19.6138 7.23703 19.6653 7.28859C19.6686 7.29193 19.6632 7.28645 19.6665 7.28978C19.6666 7.28988 19.6667 7.28998 19.6668 7.29008C19.6669 7.29018 19.667 7.29028 19.6671 7.29038C19.6675 7.29074 19.6673 7.29062 19.6677 7.29098C19.6745 7.29777 19.6633 7.28657 19.6701 7.29336C19.6732 7.29648 19.6717 7.29501 19.6748 7.29813C19.6785 7.3018 19.6807 7.30399 19.6844 7.30766C19.6985 7.32184 19.6797 7.30302 19.6939 7.31719C19.6988 7.32208 19.6985 7.32184 19.7034 7.32673C19.7181 7.34141 19.6983 7.32158 19.7129 7.33626C19.7186 7.34191 19.7168 7.34015 19.7225 7.3458C19.7238 7.34712 19.7402 7.36354 19.7415 7.36487C19.7427 7.36605 19.7427 7.36606 19.7439 7.36725C19.7444 7.36773 19.744 7.36736 19.7445 7.36785C19.7453 7.36862 19.7443 7.36766 19.7451 7.36844C19.7462 7.36955 19.7452 7.36852 19.7463 7.36963C19.7522 7.37561 19.7451 7.36842 19.751 7.3744C19.7512 7.37456 19.7604 7.38378 19.7605 7.38394L21.1755 5.9705ZM21.0282 5.82306C20.9531 5.74679 20.88 5.69224 20.825 5.65531L19.7099 7.3156C19.6889 7.30151 19.6485 7.27238 19.6031 7.22628L21.0282 5.82306ZM20.948 5.75274C16.9527 2.04196 10.8397 2.0794 6.91479 5.88613L8.30722 7.3218C11.4624 4.26165 16.3652 4.22582 19.5869 7.21817L20.948 5.75274ZM6.91483 5.88609C2.94558 9.73534 3.16176 16.0742 6.76337 19.9592L8.23006 18.5995C5.29306 15.4314 5.19459 10.3403 8.30718 7.32184L6.91483 5.88609ZM6.6734 19.8469C6.7018 19.8881 6.75192 19.9569 6.82452 20.0296L8.23951 18.6162C8.28542 18.6621 8.31273 18.7012 8.32004 18.7118L6.6734 19.8469ZM6.82452 20.0296C6.87319 20.0783 6.92673 20.1321 6.9784 20.1836L8.39039 18.7672C8.34048 18.7174 8.29243 18.6691 8.23951 18.6162L6.82452 20.0296ZM6.9824 20.1876C7.04727 20.2515 7.11162 20.3012 7.16729 20.3391L8.29276 18.6858C8.31615 18.7018 8.3495 18.7269 8.38639 18.7632L6.9824 20.1876ZM7.0493 20.245C11.0447 23.9579 17.1593 23.9214 21.0852 20.1142L19.6929 18.6785C16.537 21.739 11.6328 21.7741 8.41075 18.7799L7.0493 20.245ZM21.0853 20.1142C25.0532 16.2657 24.8383 9.92945 21.2398 6.04443L19.7725 7.40352C22.7069 10.5715 22.8046 15.6605 19.6928 18.6785L21.0853 20.1142ZM8.85219 7.99605C11.4686 5.20132 15.9319 5.17801 18.8103 7.67481L20.1208 6.164C16.5131 3.03456 10.8159 2.97204 7.39215 6.6292L8.85219 7.99605ZM18.7581 6.21265C14.9113 10.0633 11.0647 13.9141 7.21815 17.7651L8.63318 19.1785C12.4797 15.3275 16.3262 11.4767 20.173 7.62616L18.7581 6.21265ZM8.68072 17.8161C6.2042 14.9642 6.25675 10.7684 8.85219 7.99605L7.39215 6.6292C4.0895 10.157 4.02884 15.5094 7.17061 19.1274L8.68072 17.8161ZM14.0202 20.1879C12.1889 20.151 10.5549 19.5203 9.19238 18.3288L7.87585 19.8343C9.59577 21.3383 11.6827 22.1412 13.9799 22.1875L14.0202 20.1879ZM9.24161 19.7883C13.0888 15.9368 16.936 12.0854 20.783 8.23393L19.368 6.82053C15.521 10.672 11.6738 14.5234 7.82662 18.3748L9.24161 19.7883ZM19.3207 8.18328C21.2837 10.4415 21.7197 13.5803 20.3885 16.2772L22.182 17.1624C23.8765 13.7294 23.3121 9.72641 20.8302 6.87118L19.3207 8.18328ZM20.3886 16.2772C19.2088 18.6673 16.67 20.1414 13.9827 20.1879L14.0173 22.1876C17.3792 22.1294 20.6391 20.2879 22.182 17.1625L20.3886 16.2772Z" fill="url(#paintepoch_linear)" mask="url(#path-1-inside-1)"/>
<defs>
<linearGradient id="paintepoch_linear" x1="5" y1="13" x2="23" y2="13" gradientUnits="userSpaceOnUse">
<stop stop-color="#02AAB0"/>
<stop offset="1" stop-color="#00CDAC"/>
</linearGradient>
</defs>
</svg>
