<?xml version="1.0" encoding="UTF-8"?>
<svg width="22px" height="22px" viewBox="0 0 22 22" version="1.1" xmlns="http://www.w3.org/2000/svg" xmlns:xlink="http://www.w3.org/1999/xlink" xml:space="preserve" preserveAspectRatio="xMinYMin">
    <!-- Generator: Sketch 49.2 (51160) - http://www.bohemiancoding.com/sketch -->
    <title>Page 1</title>
    <desc>Created with Sketch.</desc>
    <defs>
        <polygon id="path-1" points="5.78947368e-05 0.0817082803 21.8611974 0.0817082803 21.8611974 10.0400013 5.78947368e-05 10.0400013"></polygon>
        <polygon id="path-3" points="0 0.134536306 21.8611974 0.134536306 21.8611974 10.089172 0 10.089172"></polygon>
    </defs>
    <g id="Page-1" stroke="none" stroke-width="1" fill-rule="evenodd">
        <g id="main---search" transform="translate(-39.000000, -208.000000)">
            <g id="Page-1" transform="translate(39.000000, 208.000000)">
                <g id="Group-3" transform="translate(0.000000, 0.058433)">
                    <mask id="mask-2" fill="white">
                        <use xlink:href="#path-1"></use>
                    </mask>
                    <g id="Clip-2"></g>
                    <path d="M18.4301237,5.89307134 C18.4301237,5.89307134 17.5705316,6.7252879 16.7183211,7.55035796 C15.8585842,8.38257452 16.7183211,10.0400013 16.7183211,10.0400013 L21.8612553,5.06449809 L16.7183211,0.0817082803 C16.7183211,0.0817082803 15.8624921,1.7389949 16.7183211,2.57135159 L18.4301237,4.22863822 L18.5485184,4.34340255 L5.78947368e-05,4.34340255 L5.78947368e-05,5.77830701 L18.5485184,5.77830701 L18.4301237,5.89307134 Z" id="Fill-1" mask="url(#mask-2)"></path>
                </g>
                <g id="Group-6" transform="translate(0.000000, 11.829134)">
                    <mask id="mask-4" fill="white">
                        <use xlink:href="#path-3"></use>
                    </mask>
                    <g id="Clip-5"></g>
                    <path d="M3.43113158,4.28146624 L5.14293421,2.62417962 C6.00252632,1.79196306 5.14293421,0.134536306 5.14293421,0.134536306 L0,5.11003949 L5.14293421,10.089186 C5.14293421,10.089186 5.99876316,8.43189936 5.14293421,7.59954268 L3.43113158,5.94225605 L3.31259211,5.82749172 L21.8611974,5.82749172 L21.8611974,4.39258726 L3.31259211,4.39258726 L3.43113158,4.28146624 Z" id="Fill-4"  mask="url(#mask-4)"></path>
                </g>
            </g>
        </g>
    </g>
</svg>