<?xml version="1.0" encoding="utf-8"?>
<!-- Generator: Adobe Illustrator 22.1.0, SVG Export Plug-In . SVG Version: 6.00 Build 0)  -->
<svg version="1.1" id="Слой_1" xmlns="http://www.w3.org/2000/svg" xmlns:xlink="http://www.w3.org/1999/xlink" x="0px" y="0px"
	 width="124.667px" height="48.527px" viewBox="0 0 124.667 48.527" enable-background="new 0 0 124.667 48.527"
	 xml:space="preserve">
<g>
	<path d="M24.59,48.357c-0.171,0-0.343-0.033-0.503-0.098L7.876,41.751c-0.333-0.133-0.599-0.393-0.739-0.724L0.276,24.962
		c-0.141-0.331-0.146-0.701-0.01-1.036L6.773,7.715c0.133-0.333,0.393-0.599,0.724-0.739l16.065-6.861
		c0.331-0.141,0.703-0.144,1.036-0.01L40.81,6.612c0.333,0.133,0.599,0.393,0.739,0.724l6.861,16.063
		c0.141,0.331,0.146,0.701,0.01,1.036l-6.508,16.211c-0.133,0.333-0.393,0.599-0.724,0.739l-16.063,6.861
		C24.952,48.321,24.771,48.357,24.59,48.357z M9.405,39.452l15.171,6.09l15.033-6.42l6.092-15.171L39.28,8.917L24.11,2.825
		L9.072,9.248l-6.09,15.171L9.405,39.452z"/>
	<g>
		<path d="M27.831,23.927l-6.497,7.155h10.239v3.084h-14.46v-3.084l6.437-7.125l-6.407-6.677v-3.083h14.43v3.083H21.484
			L27.831,23.927z"/>
	</g>
	<path d="M56.599,32.18V14.959h11.799v2.66h-8.778v4.466h8.597v2.659h-8.597v4.777h8.778v2.659H56.599z"/>
	<path d="M82.366,32.18l-3.822-6.429h-2.995v6.429h-3.021V14.959h7.565c3.409,0,5.629,2.221,5.629,5.396
		c0,3.072-2.014,4.724-4.08,5.06l4.209,6.765H82.366z M82.624,20.355c0-1.652-1.239-2.737-2.944-2.737h-4.131v5.473h4.131
		C81.385,23.092,82.624,22.007,82.624,20.355z"/>
	<path d="M88.007,23.582c0-5.396,4.053-8.908,9.036-8.908c3.357,0,5.552,1.601,6.946,3.589l-2.479,1.394
		c-0.904-1.291-2.531-2.298-4.467-2.298c-3.408,0-5.938,2.608-5.938,6.223c0,3.614,2.53,6.248,5.938,6.248
		c1.756,0,3.305-0.826,4.08-1.549v-2.685h-5.138v-2.66h8.158v6.454c-1.704,1.885-4.105,3.124-7.1,3.124
		C92.061,32.515,88.007,28.978,88.007,23.582z"/>
	<path d="M106.559,23.582c0-5.138,3.64-8.908,8.804-8.908s8.804,3.77,8.804,8.908s-3.64,8.908-8.804,8.908
		S106.559,28.72,106.559,23.582z M121.068,23.582c0-3.563-2.247-6.223-5.706-6.223c-3.486,0-5.706,2.66-5.706,6.223
		c0,3.538,2.22,6.222,5.706,6.222C118.822,29.804,121.068,27.12,121.068,23.582z"/>
	<g>
		<path d="M57.57,44.676v-5.124h-1.192v-0.686h1.192v-1.966h0.789v1.966h1.459v0.686h-1.459v5.005c0,0.581,0.239,0.982,0.745,0.982
			c0.342,0,0.64-0.164,0.804-0.342l0.298,0.596c-0.283,0.268-0.625,0.446-1.221,0.446C58.031,46.239,57.57,45.658,57.57,44.676z"/>
		<path d="M61.1,42.456c0-2.085,1.475-3.768,3.47-3.768c2.19,0,3.396,1.743,3.396,3.813v0.208h-6.017
			c0.074,1.564,1.116,2.86,2.814,2.86c0.909,0,1.744-0.342,2.353-0.998l0.402,0.506c-0.715,0.745-1.623,1.162-2.815,1.162
			C62.604,46.239,61.1,44.676,61.1,42.456z M64.554,39.358c-1.698,0-2.546,1.489-2.605,2.74h5.227
			C67.161,40.877,66.357,39.358,64.554,39.358z"/>
		<path d="M69.336,45.107l0.462-0.581c0.462,0.581,1.311,1.057,2.323,1.057c1.206,0,1.922-0.625,1.922-1.459
			c0-1.966-4.543-0.864-4.543-3.441c0-1.102,0.939-1.996,2.562-1.996c1.236,0,2.055,0.477,2.577,1.058l-0.432,0.551
			c-0.418-0.566-1.192-0.953-2.145-0.953c-1.117,0-1.803,0.566-1.803,1.311c0,1.802,4.543,0.699,4.543,3.47
			c0,1.162-0.894,2.115-2.696,2.115C70.944,46.239,70.05,45.897,69.336,45.107z"/>
		<path d="M76.947,44.676v-5.124h-1.192v-0.686h1.192v-1.966h0.789v1.966h1.459v0.686h-1.459v5.005c0,0.581,0.238,0.982,0.745,0.982
			c0.342,0,0.64-0.164,0.804-0.342l0.298,0.596c-0.283,0.268-0.625,0.446-1.221,0.446C77.409,46.239,76.947,45.658,76.947,44.676z"
			/>
		<path d="M85.749,46.061V41.19c0-1.385-0.7-1.802-1.743-1.802c-0.923,0-1.876,0.581-2.338,1.236v5.436h-0.775v-7.194h0.775v1.088
			c0.521-0.625,1.549-1.266,2.591-1.266c1.46,0,2.264,0.715,2.264,2.339v5.034H85.749z"/>
		<path d="M88.52,42.456c0-2.085,1.475-3.768,3.471-3.768c2.19,0,3.396,1.743,3.396,3.813v0.208h-6.017
			c0.074,1.564,1.116,2.86,2.814,2.86c0.909,0,1.743-0.342,2.353-0.998l0.402,0.506c-0.715,0.745-1.623,1.162-2.815,1.162
			C90.024,46.239,88.52,44.676,88.52,42.456z M91.975,39.358c-1.698,0-2.546,1.489-2.606,2.74h5.228
			C94.581,40.877,93.777,39.358,91.975,39.358z"/>
		<path d="M97.531,44.676v-5.124h-1.192v-0.686h1.192v-1.966h0.789v1.966h1.459v0.686H98.32v5.005c0,0.581,0.239,0.982,0.745,0.982
			c0.342,0,0.64-0.164,0.804-0.342l0.298,0.596c-0.283,0.268-0.625,0.446-1.221,0.446C97.993,46.239,97.531,45.658,97.531,44.676z"
			/>
	</g>
</g>
</svg>
