<?xml version="1.0" encoding="utf-8"?>
<!-- Generator: Adobe Illustrator 22.1.0, SVG Export Plug-In . SVG Version: 6.00 Build 0)  -->
<svg version="1.1" id="Слой_1" xmlns="http://www.w3.org/2000/svg" xmlns:xlink="http://www.w3.org/1999/xlink" x="0px" y="0px"
	 width="24px" height="24px" viewBox="0 0 24 24" enable-background="new 0 0 24 24" xml:space="preserve">
<title>Page 1</title>
<desc>Created with Sketch.</desc>
<g id="Page-1_1_">
	<g id="main---search" transform="translate(-38.000000, -334.000000)">
		<g id="Page-1" transform="translate(38.000000, 334.000000)">
			<g id="Clip-2">
			</g>
			<path id="Fill-1" d="M10.7,2.8v10c0,0.3,0.2,0.5,0.5,0.5h10c-0.3,5.3-4.6,9.5-10,9.5c-5.6,0-10.1-4.5-10.1-10.1
				C1.2,7.4,5.4,3.1,10.7,2.8z M11.2,1.7c-6.1,0-11.1,5-11.1,11.1s5,11.1,11.1,11.1s11.1-5,11.1-11.1c0-0.3-0.2-0.5-0.5-0.5H11.7
				V2.2C11.7,1.9,11.5,1.7,11.2,1.7z M13.3,1.2c5.1,0.3,9.2,4.3,9.5,9.5h-9.5C13.3,10.7,13.3,1.2,13.3,1.2z M12.8,0.1
				c-0.3,0-0.5,0.2-0.5,0.5v10.6c0,0.3,0.2,0.5,0.5,0.5h10.6c0.3,0,0.5-0.2,0.5-0.5C23.9,5.1,18.9,0.1,12.8,0.1z"/>
		</g>
	</g>
</g>
</svg>
